<svg xmlns="http://www.w3.org/2000/svg" viewBox="0 0 128 128">
    <defs>
        <linearGradient id="gradient" x1="0%" y1="0%" x2="100%" y2="100%">
            <stop offset="0%" style="stop-color:#C9A961;stop-opacity:1" />
            <stop offset="100%" style="stop-color:#D4AF37;stop-opacity:1" />
        </linearGradient>
    </defs>
    <rect width="128" height="128" rx="24" fill="#1A2332"/>
    <path d="M64 32C45.2 32 30 47.2 30 66c0 12.8 7.2 24 17.6 29.6l4 2.4-1.6 4.4c-1.2 3.2-2.8 6-4.4 8.4 6-1.2 11.6-3.6 16.4-6.8l3.2-2.4 4 .8c1.6.4 3.2.4 4.8.4 18.8 0 34-15.2 34-34S82.8 32 64 32zm0 56c-1.6 0-3.2-.2-4.8-.4l-8 1.6-6.4 4.8c.8-2.4 1.6-4.8 2-7.2l.8-8.8-6.4-6.4C35.6 67.2 33.6 62.8 33.6 58c0-16.8 13.6-30.4 30.4-30.4S94.4 41.2 94.4 58 80.8 88.4 64 88.4z" fill="url(#gradient)"/>
    <circle cx="50" cy="58" r="3.2" fill="url(#gradient)"/>
    <circle cx="64" cy="58" r="3.2" fill="url(#gradient)"/>
    <circle cx="78" cy="58" r="3.2" fill="url(#gradient)"/>
</svg>
