<?xml version="1.0" encoding="UTF-8"?>
<!-- Generated by Pixelmator Pro 3.7.1 -->
<svg width="128" height="128" viewBox="0 0 128 128" xmlns="http://www.w3.org/2000/svg">
    <path id="Path" fill="#1a2332" stroke="none" d="M 24 0 L 104 0 C 117.254837 0 128 10.745163 128 24 L 128 104 C 128 117.254837 117.254837 128 104 128 L 24 128 C 10.745166 128 0 117.254837 0 104 L 0 24 C 0 10.745163 10.745166 0 24 0 Z"/>
    <path id="A" fill="#d2ae41" fill-rule="evenodd" stroke="none" d="M 67.678635 79.053284 L 41.130856 79.068741 L 31.891178 92.619919 C 29.615967 95.954956 28.199701 98.445488 27.64234 100.091576 C 27.199308 101.400002 27.307116 102.549843 27.965761 103.54113 C 28.624409 104.532425 30.555553 105.174828 33.759254 105.468353 L 32.966091 107.810852 L 11.373896 107.823425 L 12.167061 105.480927 C 15.246922 104.846146 17.379709 104.022034 18.565493 103.008575 C 20.970768 100.981621 24.268831 96.865364 28.459778 90.659668 L 76.503899 19.990952 L 78.27375 19.989922 L 77.960663 91.390427 C 77.938599 97.129501 78.421967 100.853226 79.410751 102.561707 C 80.399551 104.270187 82.257225 105.229126 84.983833 105.43853 L 84.190666 107.781021 L 57.137218 107.796776 L 57.930382 105.454285 C 60.718185 105.283859 62.756809 104.712997 64.04628 103.741669 C 65.335754 102.77034 66.216301 101.58828 66.687912 100.195435 C 67.316734 98.338318 67.635742 95.405342 67.644951 91.396439 Z M 67.849083 74.36911 L 67.966042 39.681641 L 44.284771 74.382835 Z"/>
    <path id="E" fill="#d1ae44" fill-rule="evenodd" stroke="none" d="M 86.627838 51.259987 L 86.641647 74.976799 L 96.245163 74.971207 C 98.737366 74.969757 100.402092 74.452568 101.23938 73.419632 C 102.355782 72.062042 102.977432 69.672318 103.104347 66.250397 L 104.29673 66.24971 L 104.308884 87.134659 L 103.116501 87.135353 C 102.814026 84.215164 102.512154 82.342194 102.210892 81.516411 C 101.82357 80.484184 101.189308 79.673355 100.308105 79.083893 C 99.426903 78.494423 98.073219 78.200233 96.247047 78.201294 L 86.643532 78.206886 L 86.655045 97.985649 C 86.656593 100.640533 86.743469 102.255508 86.91568 102.830627 C 87.087891 103.405754 87.388939 103.862801 87.818825 104.201782 C 88.248703 104.540771 89.065201 104.709908 90.268333 104.709206 L 97.680443 104.704895 C 100.151161 104.703453 101.944946 104.466423 103.061867 103.993797 C 104.17878 103.521164 105.252457 102.591347 106.282898 101.204308 C 107.613876 99.374611 108.976509 96.615738 110.370857 92.927589 L 111.65992 92.926834 L 107.89817 107.973282 L 74.22142 107.992889 L 74.220467 106.355721 L 75.767342 106.35482 C 76.798599 106.354218 77.775925 106.01442 78.699364 105.335411 C 79.386589 104.863037 79.853462 104.154808 80.099983 103.210709 C 80.346504 102.266602 80.46891 100.334396 80.467209 97.414032 L 80.444511 58.431732 C 80.442299 54.626404 80.161636 52.281456 79.602531 51.396828 C 78.828407 50.217331 77.539009 49.628113 75.734314 49.629158 L 74.187439 49.630058 L 74.186485 47.992897 L 107.863235 47.973289 L 108.354286 61.114594 L 107.09745 61.115326 C 106.64444 57.959236 106.143669 55.791397 105.595131 54.611778 C 105.046585 53.432152 104.235031 52.532921 103.160454 51.914078 C 102.300819 51.472099 100.786057 51.251747 98.616119 51.253006 Z"/>
</svg>
