<?xml version="1.0" encoding="UTF-8"?>
<!-- Generated by Pixelmator Pro 3.7.1 -->
<svg width="400" height="80" viewBox="0 0 400 80" xmlns="http://www.w3.org/2000/svg">
    <path id="Aurelian-Epura" fill="#ffffff" fill-rule="evenodd" stroke="none" d="M 388.136993 53.436348 C 386.843506 53.439713 385.588745 53.286186 384.372772 52.975758 C 383.156799 52.665325 382.057922 52.158607 381.076111 51.455589 C 380.721802 50.868523 380.46463 49.948036 380.304565 48.694092 C 380.144501 47.440144 380.082306 46.127167 380.11792 44.755119 C 380.116699 44.284733 380.508087 44.048527 381.291992 44.046486 C 381.605621 44.04567 381.88028 44.142952 382.115967 44.338337 C 382.351654 44.533714 382.489349 44.729351 382.529053 44.925236 C 383.278137 46.569641 384.144135 47.968723 385.127106 49.122532 C 386.110046 50.276337 387.287506 50.851448 388.659454 50.847878 C 389.717834 50.845127 390.520508 50.519661 391.067657 49.871449 C 391.614746 49.223248 391.887207 48.487572 391.885071 47.664402 C 391.882385 46.645245 391.478424 45.793732 390.673096 45.109852 C 389.867737 44.425964 388.895905 43.791519 387.757629 43.206501 C 386.619324 42.621479 385.539642 41.957916 384.518524 41.215797 C 383.497467 40.473679 382.662201 39.584087 382.012695 38.547012 C 381.36322 37.50993 381.036621 36.266235 381.032898 34.815899 C 381.0289 33.287148 381.446777 31.953327 382.286591 30.814377 C 383.126373 29.675426 384.260864 28.780716 385.689911 28.130219 C 387.118958 27.479721 388.715454 27.15218 390.479401 27.147594 C 391.772919 27.144226 392.968811 27.288113 394.067139 27.57925 C 395.165466 27.87038 395.91098 28.15263 396.30368 28.425995 C 396.618286 28.817173 396.875 29.551468 397.073792 30.628914 C 397.272552 31.706364 397.373627 32.89185 397.376984 34.185402 C 397.378113 34.616585 397.025909 34.833092 396.320343 34.834923 C 396.045959 34.83564 395.761505 34.73838 395.467041 34.543156 C 395.172516 34.347931 394.985779 34.152428 394.906921 33.956638 C 394.393341 32.429214 393.733795 31.284382 392.928192 30.522102 C 392.122711 29.759827 391.229919 29.379963 390.249969 29.382511 C 389.387604 29.384754 388.60437 29.661179 387.900208 30.211792 C 387.196075 30.762409 386.845215 31.508083 386.847687 32.448849 C 386.849792 33.272022 387.233917 34.005989 387.999939 34.650776 C 388.765991 35.295563 389.718231 35.930058 390.856567 36.554279 C 393.40799 37.880398 395.234039 39.159389 396.334808 40.391289 C 397.435577 41.623188 397.988556 43.258274 397.993896 45.296597 C 398.000488 47.844501 397.17276 49.835964 395.510559 51.271049 C 393.848297 52.706123 391.390503 53.427887 388.136993 53.436348 Z M 387.238495 69.666908 C 386.376129 69.669144 385.944244 69.415482 385.942932 68.905907 C 385.942017 68.553116 386.235199 68.238762 386.822449 67.962845 C 387.644714 67.607918 388.368561 67.096466 388.993958 66.428452 C 389.619415 65.760445 389.930908 64.95607 389.928467 64.015312 C 389.926239 63.152943 389.709015 62.526333 389.276825 62.135468 C 388.844635 61.744606 388.197052 61.452301 387.334167 61.258553 C 386.628143 61.0644 386.078522 60.742447 385.685394 60.292679 C 385.292206 59.842915 385.094482 59.186859 385.092255 58.324493 C 385.090302 57.579727 385.402191 56.932137 386.027985 56.381729 C 386.653717 55.831322 387.534943 55.554634 388.671692 55.551682 C 390.396423 55.547195 391.779633 56.111969 392.82135 57.246025 C 393.863068 58.380081 394.3862 59.809456 394.390656 61.534187 C 394.394165 62.866943 394.113007 64.033821 393.547211 65.034859 C 392.981415 66.035904 392.287842 66.880463 391.466492 67.568581 C 390.64505 68.256699 389.842865 68.77816 389.059814 69.13298 C 388.276764 69.487816 387.669678 69.665779 387.238495 69.666908 Z M 360.521851 53.508179 C 359.462891 53.510937 358.481812 53.263138 357.578644 52.764786 C 356.675537 52.26643 355.953644 51.60194 355.413116 50.771294 C 354.872559 49.940643 354.601105 49.043919 354.598602 48.081108 C 354.595093 46.730595 355.013641 45.605007 355.854401 44.704311 C 356.695099 43.803616 357.936157 42.992844 359.577606 42.271973 L 364.798248 39.981808 C 365.581299 39.633717 366.065094 39.317802 366.249634 39.03405 C 366.434174 38.750298 366.529114 38.232662 366.534546 37.481136 L 366.594757 34.15155 C 366.631073 33.035515 366.432953 32.162029 366.000427 31.531075 C 365.567902 30.90012 364.911865 30.585789 364.032379 30.588081 C 363.541168 30.589355 363.034027 30.69664 362.510956 30.909912 C 361.987793 31.123192 361.59494 31.371044 361.332306 31.653469 C 361.193695 31.810623 361.101532 31.997822 361.055817 32.215061 C 361.010162 32.432301 360.98761 32.653008 360.98819 32.877171 C 360.98877 33.098278 361.007263 33.379055 361.043671 33.719494 C 361.080109 34.05994 361.098572 34.340706 361.099121 34.561806 C 361.099823 34.822113 360.783386 35.135757 360.149811 35.50275 C 359.516235 35.869743 358.791595 36.197765 357.975952 36.486839 C 357.160248 36.775913 356.459961 36.921204 355.875061 36.922718 C 355.582947 36.923481 355.337463 36.810814 355.138733 36.584713 C 354.939972 36.358612 354.840179 36.070702 354.839294 35.720982 C 354.837677 35.093803 355.049927 34.473427 355.476166 33.85984 C 355.902374 33.246254 356.599274 32.544075 357.566711 31.753296 C 358.594666 30.895599 359.717377 30.135509 360.934784 29.473003 C 362.152222 28.810505 363.350372 28.277138 364.529236 27.872898 C 365.708099 27.468655 366.721405 27.265434 367.569061 27.263229 C 369.655792 27.257801 371.3302 27.930073 372.592377 29.280071 C 373.854523 30.630062 374.452667 32.419529 374.386749 34.648521 L 374.123749 46.542912 C 374.086853 47.430496 374.242889 48.184814 374.591736 48.805878 C 374.940613 49.426945 375.380585 49.736782 375.911591 49.735401 C 376.666168 49.733437 377.31015 49.484016 377.843567 48.987133 C 377.974884 48.855106 378.099365 48.78894 378.216949 48.788639 C 378.412964 48.788124 378.578033 48.854614 378.712219 48.988091 C 378.846375 49.121567 378.913727 49.286301 378.914215 49.482292 C 378.915436 49.945324 378.556824 50.538216 377.83847 51.260971 C 377.116364 51.986191 376.337067 52.536072 375.500458 52.910637 C 374.663849 53.285202 373.803375 53.473633 372.918976 53.475933 C 370.72995 53.481628 368.910461 52.370743 367.460449 50.14325 L 367.332733 50.143578 C 366.042297 51.333923 364.874084 52.191513 363.828094 52.71637 C 362.782135 53.241234 361.680084 53.505165 360.521851 53.508179 Z M 363.998413 49.66441 C 364.428955 49.663292 364.789886 49.591156 365.081024 49.44799 C 365.372192 49.304832 365.636749 49.081665 365.874908 48.778481 C 366.006134 48.614609 366.107849 48.406105 366.180084 48.152962 C 366.252319 47.899818 366.291351 47.593784 366.29715 47.234856 L 366.452423 43.002838 C 366.458191 42.635948 366.40567 42.394924 366.29483 42.279762 C 366.18396 42.164597 366.043091 42.107239 365.872223 42.107681 C 365.793823 42.10788 365.69693 42.119617 365.581543 42.142891 C 365.466156 42.166157 365.332001 42.220863 365.179077 42.307011 C 364.035187 42.861835 363.190857 43.429188 362.646088 44.009087 C 362.101196 44.588997 361.830414 45.501518 361.833679 46.746685 C 361.836578 47.862 362.078033 48.627426 362.558075 49.042973 C 363.038116 49.458511 363.518219 49.665661 363.998413 49.66441 Z M 330.95874 52.938301 C 330.662903 52.939072 330.392822 52.866737 330.148376 52.721298 C 329.903931 52.575851 329.781342 52.369312 329.78064 52.101654 C 329.779846 51.788071 329.904755 51.54184 330.155457 51.362957 C 330.406067 51.184074 330.730896 51.035313 331.129883 50.916679 C 332.002655 50.654106 332.584534 50.368404 332.875549 50.059566 C 333.166595 49.750732 333.31131 49.28978 333.309723 48.676689 L 333.274567 35.167046 C 333.27243 34.333466 333.162048 33.653603 332.943634 33.127441 C 332.725098 32.601269 332.254242 32.241135 331.531006 32.047028 C 331.341553 31.976467 331.163818 31.870972 330.997803 31.730534 C 330.831757 31.590096 330.748291 31.345016 330.747345 30.995289 C 330.745911 30.442841 330.985779 30.110558 331.466888 29.998451 C 332.710052 29.681625 334.082428 29.265709 335.584076 28.75069 C 337.085815 28.235664 338.374634 27.716457 339.450592 27.19305 C 339.652985 27.068192 339.894867 26.935726 340.1763 26.795658 C 340.457672 26.655579 340.669678 26.585365 340.812378 26.584991 C 341.169464 26.584068 341.348572 26.801331 341.349701 27.236805 C 341.350159 27.418709 341.3414 27.809181 341.323395 28.408237 C 341.305298 29.007286 341.279236 29.628407 341.245056 30.271599 C 341.210907 30.914799 341.190979 31.453514 341.185394 31.887779 C 341.186249 32.223415 341.258087 32.391045 341.400787 32.390671 C 341.993378 31.573307 342.68689 30.773151 343.481354 29.99017 C 344.275848 29.207184 345.13858 28.557713 346.069427 28.041721 C 347.000275 27.525738 347.934509 27.266533 348.872223 27.264091 C 350.209839 27.260609 351.167969 27.5149 351.746613 28.026958 C 352.325165 28.539013 352.615479 29.198048 352.617615 30.00407 C 352.61911 30.588375 352.456879 31.23679 352.130676 31.949341 C 351.804565 32.661888 351.385406 33.275452 350.873138 33.790047 C 350.360931 34.304634 349.812347 34.562695 349.227478 34.564209 C 348.863647 34.565155 348.488159 34.477016 348.100891 34.299797 C 347.713623 34.122574 347.314636 33.940182 346.903748 33.752598 C 346.52536 33.571674 346.147034 33.39872 345.768677 33.233719 C 345.390381 33.068718 345.044434 32.986629 344.730835 32.987446 C 343.725769 32.990059 342.855682 33.36578 342.120453 34.114609 C 341.385284 34.863449 341.020599 36.346119 341.026367 38.562668 L 341.051239 48.125534 C 341.053345 48.924812 341.297089 49.51445 341.782532 49.894455 C 342.268036 50.274467 343.049225 50.619858 344.126099 50.930645 C 344.557617 51.047123 344.883209 51.188057 345.102905 51.353474 C 345.322632 51.518883 345.432831 51.7547 345.433655 52.060944 C 345.43512 52.620743 345.108185 52.901497 344.45282 52.903202 C 343.276886 52.906261 342.055511 52.860435 340.788635 52.765739 C 339.521759 52.671036 338.378784 52.625015 337.359589 52.627659 C 336.693237 52.629395 336.0177 52.650749 335.333069 52.69173 C 334.648438 52.732712 333.944214 52.783539 333.220428 52.844223 C 332.496643 52.9049 331.742737 52.936264 330.95874 52.938301 Z M 316.704132 54.012608 C 316.366028 54.013489 316.196503 53.824986 316.195526 53.447083 C 316.194336 52.990791 316.241699 52.364258 316.337646 51.567482 C 316.433533 50.770699 316.481018 50.165909 316.47995 49.753105 C 316.479462 49.577934 316.470978 49.436935 316.454437 49.330105 C 316.437927 49.223267 316.413727 49.150291 316.381775 49.111176 C 315.338318 50.378052 313.987274 51.457527 312.328583 52.349632 C 310.66983 53.241737 308.935516 53.69014 307.125702 53.694847 C 305.903168 53.698029 304.797546 53.340004 303.808624 52.620766 C 302.819733 51.901527 302.037811 50.918709 301.462799 49.672272 C 300.887817 48.425842 300.598297 47.022346 300.594238 45.461758 L 300.565613 34.441818 C 300.563293 33.547604 300.397522 32.821945 300.06839 32.264832 C 299.739288 31.707718 299.123718 31.334492 298.221619 31.145126 C 297.993011 31.099174 297.784088 30.993607 297.594727 30.828419 C 297.405304 30.663239 297.31015 30.407623 297.309265 30.061573 C 297.308533 29.773102 297.388153 29.537704 297.548126 29.355381 C 297.70813 29.173058 297.92157 29.061947 298.188568 29.022057 C 299.842621 28.939354 301.337219 28.771477 302.672424 28.518421 C 304.007568 28.265362 305.368347 27.967686 306.75473 27.62537 C 306.936432 27.553238 307.13681 27.492851 307.356018 27.444202 C 307.575134 27.39555 307.788177 27.37096 307.995209 27.370415 C 308.523163 27.369049 308.76825 27.642799 308.730499 28.191677 C 308.582825 29.093636 308.472351 29.848488 308.399261 30.456257 C 308.32608 31.06403 308.290649 31.818687 308.29303 32.720253 L 308.322327 43.99284 C 308.324799 44.933601 308.48172 45.757118 308.793152 46.463421 C 309.104675 47.16972 309.538605 47.72073 310.095154 48.116478 C 310.651733 48.512226 311.261047 48.725159 311.923248 48.755287 C 312.557159 48.753639 313.17569 48.669189 313.778839 48.501945 C 314.381989 48.334705 314.958801 47.991898 315.509338 47.473534 C 315.747009 47.256096 315.997314 46.842491 316.260376 46.232689 C 316.523407 45.622894 316.653534 44.8069 316.650879 43.784668 L 316.626282 34.325623 C 316.624481 33.631073 316.490509 33.054321 316.224426 32.595352 C 315.958344 32.136372 315.583649 31.77293 315.100372 31.504997 C 314.616974 31.237068 314.066895 31.087677 313.450043 31.056824 C 313.000427 31.026142 312.64978 30.918339 312.398224 30.733414 C 312.146637 30.548481 312.020203 30.227882 312.019012 29.771584 C 312.017944 29.354488 312.160675 29.054623 312.447083 28.871967 C 312.733582 28.689312 313.065735 28.597496 313.443634 28.596516 C 315.429596 28.45599 317.008972 28.33873 318.181915 28.244724 C 319.354889 28.150719 320.320953 28.042095 321.080109 27.918846 C 321.839264 27.795601 322.587311 27.65126 323.324341 27.485809 C 323.435059 27.446323 323.565247 27.40847 323.714935 27.37225 C 323.864594 27.336029 323.994537 27.31778 324.104797 27.31749 C 324.67865 27.315998 324.966217 27.547073 324.967438 28.010719 C 324.967804 28.146069 324.950409 28.286991 324.915253 28.43346 C 324.880096 28.579933 324.826904 28.744217 324.755768 28.926304 C 324.716919 29.075855 324.668854 29.417126 324.61142 29.950138 C 324.554016 30.483143 324.496643 31.043705 324.439423 31.631832 C 324.382141 32.219963 324.353973 32.686741 324.354828 33.032185 L 324.390289 46.66309 C 324.392639 47.560371 324.502014 48.161839 324.718353 48.467518 C 324.934784 48.773193 325.180176 48.925674 325.454559 48.924961 C 325.639526 48.92448 325.923248 48.926498 326.305756 48.931015 C 326.688263 48.935539 326.952423 48.937599 327.098175 48.937225 C 327.4552 48.936295 327.732025 49.030968 327.928497 49.221245 C 328.125 49.411522 328.223663 49.667126 328.224518 49.988064 C 328.225433 50.365959 328.155792 50.660282 328.015503 50.87104 C 327.875183 51.081787 327.607239 51.207275 327.21167 51.247501 C 325.329926 51.416542 323.631927 51.747253 322.117676 52.239647 C 320.603333 52.73204 319.303192 53.187881 318.217102 53.607197 C 317.971191 53.711349 317.714691 53.804806 317.44754 53.887569 C 317.180359 53.970337 316.932617 54.012016 316.704132 54.012608 Z M 266.317719 68.33786 C 266.057434 68.338531 265.794342 68.269547 265.528473 68.130898 C 265.262604 67.992256 265.129303 67.789413 265.128601 67.522369 C 265.127838 67.208786 265.258057 66.958862 265.519409 66.772606 C 265.780792 66.586342 266.10025 66.433922 266.477844 66.315338 C 267.322388 66.052841 267.906128 65.777702 268.229065 65.489914 C 268.552002 65.202126 268.712646 64.730568 268.710938 64.075211 L 268.637634 35.904781 C 268.636414 35.430107 268.539032 34.951717 268.345428 34.469589 C 268.151855 33.987453 267.874695 33.565414 267.513916 33.203457 C 267.153137 32.841507 266.703766 32.61866 266.165833 32.534927 C 265.944519 32.46384 265.770294 32.358185 265.643127 32.217949 C 265.515991 32.077717 265.451965 31.832737 265.45108 31.483013 C 265.450226 31.158401 265.513 30.921059 265.639374 30.770981 C 265.765808 30.620895 265.919861 30.526028 266.101685 30.486351 C 267.461761 30.16188 268.927399 29.743725 270.498596 29.231892 C 272.069855 28.720055 273.42157 28.186142 274.553772 27.630123 C 274.721466 27.565372 274.893463 27.474743 275.069855 27.358219 C 275.246246 27.241703 275.402435 27.183254 275.538422 27.182907 C 275.777283 27.182285 275.928162 27.256767 275.990997 27.406353 C 276.053894 27.555946 276.08551 27.721691 276.085999 27.903591 C 276.086853 28.224529 276.039185 28.743111 275.943054 29.459351 C 275.846924 30.175591 275.79953 30.801048 275.800934 31.335743 C 275.801941 31.713642 275.838013 31.938324 275.909271 32.009804 C 276.300232 31.616791 276.998138 31.091011 278.003052 30.432426 C 279.007965 29.773846 280.160034 29.181805 281.45929 28.656288 C 282.758453 28.130764 284.015686 27.866428 285.230835 27.863266 C 287.333435 27.857803 289.12558 28.416302 290.607391 29.538803 C 292.089111 30.661301 293.222565 32.098125 294.00769 33.849312 C 294.792877 35.600491 295.187958 37.429379 295.192902 39.336014 C 295.197662 41.164265 294.853027 42.944386 294.158997 44.676456 C 293.464966 46.408524 292.496124 47.974682 291.252441 49.374985 C 290.00882 50.775291 288.568359 51.887299 286.931244 52.711063 C 285.294098 53.534821 283.522186 53.949173 281.61557 53.954132 C 281.195374 53.955227 280.68335 53.900513 280.079498 53.790001 C 279.475586 53.679489 278.867035 53.528107 278.253754 53.33585 C 277.640411 53.1436 277.089386 52.93602 276.600739 52.713131 C 276.561523 52.713226 276.522491 52.769985 276.483551 52.883392 C 276.444641 52.996803 276.415619 53.137749 276.396454 53.306232 C 276.377319 53.474709 276.36792 53.633675 276.368317 53.783119 L 276.393616 63.525131 C 276.39505 64.066559 276.521637 64.508125 276.773315 64.849854 C 277.025024 65.191574 277.383575 65.470543 277.84903 65.68676 C 278.314423 65.902985 278.87204 66.117424 279.52182 66.330109 C 279.931854 66.446632 280.251953 66.589279 280.482056 66.758026 C 280.712189 66.926781 280.827698 67.167938 280.828522 67.481537 C 280.829102 67.716721 280.729156 67.912209 280.528656 68.068001 C 280.328186 68.223778 280.094116 68.302025 279.826447 68.302711 C 278.657837 68.305756 277.434021 68.259949 276.154938 68.165276 C 274.875824 68.070602 273.726685 68.024597 272.70752 68.027245 C 272.041168 68.028976 271.365662 68.050339 270.681 68.091316 C 269.996338 68.132294 269.293976 68.183113 268.573853 68.24379 C 267.85376 68.304466 267.101685 68.335815 266.317719 68.33786 Z M 281.430176 51.215919 C 281.857117 51.214809 282.378967 51.053131 282.99585 50.730896 C 283.612671 50.408665 284.220917 49.870857 284.82077 49.117481 C 285.420593 48.364098 285.922638 47.360786 286.326996 46.107517 C 286.731323 44.854248 286.931152 43.311981 286.926361 41.480675 C 286.920807 39.335171 286.702759 37.625256 286.272186 36.350883 C 285.841675 35.076511 285.314911 34.119518 284.691864 33.479874 C 284.068878 32.840218 283.434937 32.419724 282.7901 32.218365 C 282.145233 32.017002 281.589417 31.916935 281.122742 31.918144 C 280.407379 31.920006 279.678925 32.077778 278.937439 32.391464 C 278.195892 32.705143 277.587128 33.075432 277.111145 33.502342 C 276.635193 33.929256 276.397614 34.312054 276.398499 34.650761 C 276.399384 34.998642 276.399139 35.621681 276.397827 36.51989 C 276.396484 37.418095 276.387421 38.415375 276.370728 39.511761 C 276.353943 40.60815 276.345062 41.608185 276.344055 42.511906 C 276.343018 43.415623 276.342926 44.027939 276.343811 44.348877 C 276.346161 45.27372 276.550568 46.273506 276.957001 47.348274 C 277.363434 48.423035 277.945984 49.337017 278.704681 50.090233 C 279.463348 50.843445 280.371826 51.218674 281.430176 51.215919 Z M 232.162125 53.312885 C 231.781143 53.313877 231.481903 53.22554 231.264313 53.047871 C 231.046722 52.870209 230.937607 52.66378 230.937012 52.428589 C 230.935532 51.861439 231.372421 51.459129 232.247635 51.221661 C 233.575134 50.84766 234.518784 50.426735 235.078598 49.95887 C 235.638412 49.491009 235.916702 48.631752 235.913437 47.381073 L 235.843857 20.632805 C 235.840515 19.350277 235.586105 18.439739 235.080658 17.901154 C 234.57518 17.362564 233.625366 16.941963 232.231186 16.639355 C 231.725571 16.523071 231.371887 16.351124 231.17009 16.123501 C 230.968307 15.895874 230.867096 15.660797 230.86647 15.418251 C 230.865768 15.151215 230.981888 14.936241 231.214813 14.773331 C 231.447754 14.61042 231.7547 14.528465 232.135651 14.527473 C 233.110703 14.524933 234.109711 14.541939 235.13266 14.578476 C 236.155579 14.615013 237.158768 14.657883 238.142227 14.707077 C 239.125702 14.756271 240.062393 14.779709 240.952316 14.777397 C 242.985123 14.77211 245.158722 14.748695 247.473175 14.707153 C 249.787643 14.665611 251.841766 14.626266 253.635635 14.589142 C 254.904068 14.579109 255.950424 14.506866 256.77478 14.372421 C 257.599152 14.237991 258.089722 14.170563 258.24649 14.170151 C 258.539276 14.169395 258.843567 14.24807 259.159393 14.406189 C 259.47525 14.564308 259.65332 14.853699 259.693604 15.274361 C 259.861328 16.660587 260.069 18.020962 260.316528 19.355526 C 260.564087 20.69009 260.689148 21.861732 260.691772 22.87048 C 260.692749 23.255726 260.613281 23.539509 260.453308 23.721832 C 260.293304 23.904152 260.115326 23.995571 259.919312 23.996082 C 259.723328 23.99659 259.52179 23.92392 259.314697 23.778084 C 259.107605 23.632233 258.932312 23.397198 258.788727 23.072952 C 258.397217 22.086655 258.046265 21.241894 257.735718 20.538658 C 257.425201 19.835415 257.067902 19.282825 256.663879 18.880863 C 256.210632 18.415329 255.65036 17.995255 254.982986 17.620625 C 254.315659 17.245987 253.465057 17.060024 252.431183 17.062706 L 248.006683 17.074215 C 247.146759 17.07645 246.410843 17.302986 245.79892 17.753838 C 245.187012 18.204685 244.882111 18.833107 244.884201 19.63913 L 244.913132 30.754612 C 244.914368 31.236019 245.047272 31.587688 245.311829 31.809639 C 245.576385 32.031586 245.926102 32.141994 246.360947 32.140869 L 251.506653 32.12748 C 252.547241 32.124775 253.290192 31.780315 253.735535 31.094097 C 254.180847 30.407879 254.571609 29.579868 254.907776 28.610054 C 255.205353 27.875519 255.605576 27.507614 256.108429 27.506302 C 256.297058 27.50581 256.471893 27.615913 256.632965 27.836601 C 256.794006 28.057285 256.858826 28.372841 256.827423 28.783291 C 256.796814 29.261105 256.756348 29.77446 256.706024 30.323372 C 256.655701 30.872288 256.619598 31.416714 256.597717 31.956673 C 256.575867 32.496632 256.565582 33.019867 256.566895 33.526386 C 256.568176 34.01453 256.579346 34.533718 256.600372 35.083988 C 256.621399 35.634243 256.650543 36.187229 256.687836 36.742958 C 256.725098 37.298691 256.760345 37.831909 256.793488 38.342628 C 256.859161 38.874092 256.830811 39.262016 256.708344 39.506405 C 256.585846 39.750797 256.423279 39.87326 256.22052 39.873787 C 255.568207 39.875481 255.099915 39.378143 254.815613 38.381767 C 254.481155 37.191971 254.092941 36.285603 253.65094 35.662636 C 253.208969 35.039669 252.612198 34.729164 251.860703 34.731117 L 246.343826 34.745464 C 245.870392 34.7467 245.515594 34.859863 245.279465 35.084953 C 245.04335 35.31004 244.925873 35.659302 244.927109 36.132748 L 244.9561 47.277626 C 244.959152 48.445618 245.210541 49.264915 245.710312 49.735531 C 246.210098 50.206146 246.981827 50.440086 248.025482 50.437378 L 253.099518 50.424179 C 253.968002 50.421921 254.791367 50.319023 255.569611 50.115494 C 256.34787 49.911964 257.017792 49.581329 257.579468 49.123566 C 258.237152 48.594513 258.84201 47.912174 259.394165 47.076542 C 259.946259 46.240898 260.454468 45.363132 260.918793 44.443203 C 261.067444 44.143314 261.22818 43.946907 261.40094 43.85397 C 261.57373 43.761036 261.774048 43.717648 262.001923 43.723789 C 262.229767 43.730541 262.386902 43.850636 262.473267 44.084076 C 262.559601 44.317513 262.603149 44.567749 262.603851 44.834789 C 262.605499 45.477276 262.509399 46.215557 262.315582 47.049648 C 262.121765 47.883736 261.879059 48.763573 261.587463 49.689178 C 261.295898 50.614777 261.017456 51.529007 260.752136 52.431885 C 260.667725 52.706493 260.504272 52.901993 260.261688 53.018379 C 260.019165 53.134773 259.748138 53.193352 259.448608 53.194134 C 258.949463 53.195435 258.00885 53.186241 256.626709 53.166565 C 255.244614 53.146881 253.611374 53.119896 251.72699 53.085602 C 249.842621 53.051304 247.89917 53.025124 245.896622 53.007053 C 243.894043 52.988991 242.035645 52.982189 240.32132 52.986649 C 239.523254 52.988728 238.649948 53.012428 237.70134 53.057774 C 236.752716 53.103115 235.800766 53.156425 234.845444 53.217705 C 233.890137 53.278992 232.995697 53.310715 232.162125 53.312885 Z M 185.575851 53.316467 C 185.319824 53.317139 185.059647 53.244774 184.795288 53.099384 C 184.530945 52.953995 184.398407 52.747482 184.397705 52.479824 C 184.396912 52.166237 184.538055 51.91996 184.821167 51.740997 C 185.104263 51.562023 185.412872 51.413307 185.746994 51.294846 C 186.334473 51.104057 186.854019 50.879005 187.305664 50.619667 C 187.757309 50.360332 187.982086 49.838688 187.980072 49.054718 L 187.945053 35.593765 C 187.942886 34.760181 187.817139 34.043613 187.567825 33.444031 C 187.318527 32.844444 186.828964 32.472725 186.099136 32.328854 C 185.942215 32.283325 185.796631 32.179581 185.662384 32.017624 C 185.528122 31.855667 185.460571 31.608711 185.459717 31.276745 C 185.458267 30.716942 185.650009 30.384789 186.035019 30.280277 C 187.373627 29.956474 188.843079 29.529579 190.443344 28.999603 C 192.043594 28.469624 193.399368 27.905842 194.510696 27.308235 C 194.691772 27.229359 194.879395 27.12812 195.073547 27.004505 C 195.267685 26.88089 195.439789 26.818897 195.589844 26.818504 C 195.828705 26.817879 195.977722 26.888851 196.03688 27.031403 C 196.096054 27.173958 196.12587 27.336189 196.126343 27.518089 C 196.127136 27.824329 196.079453 28.326683 195.983292 29.025158 C 195.887085 29.723633 195.839722 30.34726 195.841141 30.896034 C 195.841553 31.05283 195.851791 31.223839 195.871887 31.409061 C 195.891953 31.594284 195.921631 31.70644 195.960953 31.745541 C 197.297775 30.480957 198.642929 29.489544 199.99649 28.771255 C 201.350037 28.052975 202.932037 27.691483 204.742523 27.686775 C 206.79126 27.681446 208.509033 28.428936 209.89592 29.929272 C 211.282806 31.429615 211.97963 33.480652 211.986389 36.082455 L 212.020096 49.039963 C 212.022125 49.823921 212.249619 50.334755 212.702545 50.572441 C 213.155487 50.810131 213.676193 51.026199 214.264679 51.220665 C 214.578568 51.337448 214.858734 51.488152 215.105103 51.672783 C 215.351517 51.857422 215.475098 52.106529 215.475937 52.420116 C 215.476639 52.687771 215.363983 52.891403 215.138031 53.031021 C 214.912094 53.170647 214.681534 53.240761 214.44632 53.241367 C 213.662354 53.243408 212.926254 53.215927 212.237991 53.15892 C 211.549698 53.101913 210.88092 53.054649 210.231583 53.017143 C 209.582245 52.97963 208.904816 52.961796 208.199249 52.963631 C 207.532867 52.965363 206.871628 52.986687 206.215454 53.027592 C 205.55928 53.068497 204.893494 53.119225 204.218094 53.179779 C 203.542694 53.240334 202.813004 53.271637 202.029022 53.273666 C 201.800552 53.274269 201.5793 53.205322 201.365189 53.066849 C 201.151062 52.928375 201.043671 52.725311 201.042969 52.457657 C 201.04216 52.144066 201.156494 51.894344 201.386002 51.708469 C 201.615509 51.522598 201.886871 51.370461 202.200165 51.252052 C 202.787643 51.054527 203.283005 50.835808 203.68634 50.595894 C 204.08963 50.355972 204.290253 49.84404 204.288239 49.06007 L 204.257751 37.339153 C 204.25383 35.839817 203.907181 34.667065 203.217789 33.820873 C 202.528366 32.974689 201.621429 32.549698 200.496887 32.545883 C 199.63208 32.548134 198.863632 32.679058 198.191498 32.938663 C 197.519348 33.198265 196.83667 33.581612 196.143448 34.088711 C 195.986969 34.214066 195.869812 34.380192 195.791962 34.587112 C 195.714111 34.794025 195.675415 34.998844 195.675949 35.201572 L 195.712067 49.082375 C 195.714096 49.866348 195.925491 50.378899 196.346313 50.620041 C 196.767059 50.861183 197.255783 51.075653 197.812408 51.263458 C 198.586044 51.528492 198.973541 51.921307 198.974899 52.44191 C 198.975494 52.677101 198.878036 52.876099 198.682465 53.038914 C 198.486877 53.201733 198.257431 53.283482 197.994064 53.284164 C 197.210098 53.286205 196.48822 53.258686 195.82843 53.201607 C 195.16864 53.144524 194.538132 53.09716 193.936859 53.059528 C 193.335648 53.021893 192.682236 53.003994 191.976654 53.005825 C 191.310303 53.007561 190.634766 53.028915 189.950134 53.069897 C 189.265472 53.110878 188.561279 53.161709 187.837463 53.222389 C 187.113693 53.28307 186.359802 53.31443 185.575851 53.316467 Z M 164.160431 54.018951 C 163.10144 54.021706 162.120377 53.773911 161.217209 53.275555 C 160.314026 52.777206 159.592209 52.112709 159.051666 51.282059 C 158.511124 50.451412 158.239594 49.554688 158.237091 48.591881 C 158.233597 47.241367 158.652206 46.11578 159.49295 45.215084 C 160.333679 44.314384 161.574738 43.503613 163.216156 42.782742 L 168.436783 40.49258 C 169.219849 40.144493 169.703629 39.828575 169.888168 39.544819 C 170.072723 39.261074 170.167664 38.743435 170.173065 37.991909 L 170.233322 34.662319 C 170.269592 33.546284 170.071503 32.672802 169.638977 32.041843 C 169.206451 31.410892 168.550446 31.096558 167.670929 31.098854 C 167.179718 31.100128 166.672562 31.207409 166.149445 31.420689 C 165.626343 31.633961 165.233475 31.881813 164.970856 32.164242 C 164.832214 32.321396 164.740082 32.508591 164.694382 32.725838 C 164.648712 32.943073 164.626175 33.16378 164.62674 33.387951 C 164.627319 33.609051 164.645798 33.889824 164.68222 34.230267 C 164.718628 34.570705 164.737122 34.851479 164.737686 35.072578 C 164.738358 35.332886 164.421936 35.646526 163.788361 36.013519 C 163.15477 36.380516 162.430161 36.708538 161.614456 36.997608 C 160.798782 37.286682 160.098495 37.431973 159.513596 37.433491 C 159.22142 37.434254 158.975983 37.321583 158.777267 37.095482 C 158.578537 36.869381 158.478729 36.581474 158.477829 36.23175 C 158.476181 35.604572 158.688477 34.984203 159.1147 34.370609 C 159.540924 33.757023 160.237762 33.054844 161.205276 32.264069 C 162.233231 31.406368 163.355896 30.646282 164.573334 29.983776 C 165.790771 29.321278 166.988892 28.78791 168.16777 28.383663 C 169.346695 27.979424 170.35994 27.776203 171.207596 27.773998 C 173.294327 27.768574 174.968719 28.440845 176.230896 29.790844 C 177.493057 31.140835 178.091187 32.930298 178.025314 35.15929 L 177.762283 47.053684 C 177.725403 47.941269 177.881393 48.69558 178.230286 49.316647 C 178.579163 49.937714 179.019119 50.247551 179.550125 50.24617 C 180.304718 50.244209 180.948654 49.994785 181.482101 49.49791 C 181.613434 49.365875 181.737885 49.299713 181.855484 49.299408 C 182.051468 49.298897 182.216553 49.365387 182.350754 49.498863 C 182.484909 49.632339 182.552246 49.797073 182.552765 49.993065 C 182.55397 50.456093 182.195389 51.048981 181.476974 51.771744 C 180.754913 52.49696 179.975601 53.046844 179.138992 53.42141 C 178.302399 53.795971 177.44191 53.984402 176.55751 53.986702 C 174.3685 53.992397 172.549042 52.881512 171.098999 50.654018 L 170.971313 50.65435 C 169.680832 51.844692 168.51265 52.702286 167.466675 53.227142 C 166.420685 53.752003 165.318619 54.015938 164.160431 54.018951 Z M 167.636948 50.175186 C 168.067535 50.174065 168.428375 50.101921 168.719574 49.958763 C 169.010712 49.815605 169.275345 49.592438 169.513412 49.289249 C 169.644669 49.125378 169.746414 48.916874 169.818649 48.663731 C 169.890869 48.410587 169.929871 48.104557 169.935684 47.745628 L 170.090973 43.513611 C 170.096756 43.146717 170.044205 42.905693 169.933365 42.790535 C 169.82251 42.675369 169.681641 42.618011 169.510757 42.618454 C 169.432358 42.61866 169.33548 42.63039 169.220093 42.65366 C 169.104675 42.676929 168.970551 42.731636 168.817642 42.81778 C 167.673767 43.372604 166.829407 43.939953 166.284576 44.519863 C 165.739761 45.099766 165.468948 46.012291 165.472214 47.257454 C 165.475098 48.372776 165.716568 49.138199 166.196625 49.553741 C 166.676651 49.969284 167.156784 50.17643 167.636948 50.175186 Z M 142.091095 53.429581 C 141.855927 53.430191 141.640152 53.36216 141.443787 53.225471 C 141.247452 53.088783 141.148972 52.902851 141.148361 52.667656 C 141.147568 52.354073 141.244888 52.09903 141.440353 51.902527 C 141.635849 51.706028 141.890274 51.568172 142.203644 51.48896 C 143.222198 51.251114 143.936859 50.984669 144.347687 50.689606 C 144.758514 50.394547 144.963104 49.933441 144.961472 49.306259 L 144.928436 36.605999 C 144.924973 35.273251 144.716721 34.323235 144.303635 33.755928 C 143.890579 33.188618 143.252716 32.847298 142.39006 32.731937 C 142.15477 32.693352 141.978073 32.576221 141.85997 32.380535 C 141.741852 32.184845 141.682449 31.949814 141.681732 31.675423 C 141.680191 31.087448 141.894928 30.753704 142.325912 30.674179 C 144.363174 30.276901 146.174698 29.723408 147.760391 29.013706 C 149.346115 28.304005 150.569611 27.752048 151.430954 27.357815 C 152.057312 27.042599 152.448883 26.884789 152.605682 26.88438 C 153.115265 26.883053 153.370667 27.117584 153.371887 27.587955 C 153.334412 28.254436 153.248383 29.087624 153.1138 30.08754 C 152.979202 31.08746 152.864288 32.116714 152.769043 33.175327 C 152.673798 34.233944 152.627441 35.25322 152.62999 36.233185 L 152.663803 49.227425 C 152.665222 49.776207 152.872131 50.206848 153.284531 50.519367 C 153.696915 50.831886 154.432693 51.143559 155.491898 51.454391 C 155.805786 51.571171 156.060913 51.707703 156.257324 51.863983 C 156.453735 52.020271 156.552338 52.255203 156.553146 52.568794 C 156.554474 53.078369 156.261139 53.333923 155.673157 53.335449 C 154.928406 53.337387 154.144394 53.319824 153.321121 53.282776 C 152.497849 53.245712 151.703995 53.208584 150.939499 53.171371 C 150.175018 53.134163 149.440033 53.116474 148.734467 53.118309 C 148.0681 53.120045 147.37236 53.141457 146.647293 53.182541 C 145.922226 53.223625 145.177597 53.274559 144.413376 53.335342 C 143.649155 53.396126 142.875061 53.42754 142.091095 53.429581 Z M 148.482971 24.249191 C 147.267822 24.252357 146.198486 23.804356 145.274994 22.90519 C 144.351486 22.006016 143.888077 20.929276 143.884842 19.674919 C 143.881378 18.342167 144.339035 17.223839 145.257843 16.319866 C 146.176666 15.415901 147.243668 14.962357 148.458801 14.959198 C 149.83075 14.955627 150.968658 15.403442 151.872604 16.302666 C 152.776489 17.201885 153.230179 18.317856 153.233627 19.650604 C 153.236893 20.904957 152.78894 21.98407 151.889725 22.887981 C 150.990479 23.791897 149.854919 24.245628 148.482971 24.249191 Z M 125.374969 53.473064 C 125.018501 53.473988 124.733223 53.405212 124.519104 53.266739 C 124.304985 53.128265 124.197578 52.925201 124.196884 52.657547 C 124.196075 52.343964 124.318398 52.102173 124.563873 51.932182 C 124.809334 51.762199 125.136742 51.601952 125.546104 51.451439 C 126.133583 51.253914 126.653175 51.043255 127.104897 50.819439 C 127.556633 50.595627 127.781395 50.059593 127.779198 49.211311 L 127.70575 20.975651 C 127.702957 19.903202 127.559059 18.977058 127.274071 18.197197 C 126.989067 17.417324 126.356354 16.930676 125.375885 16.737236 C 124.965927 16.659901 124.760269 16.357578 124.758911 15.830223 C 124.757622 15.341476 124.942154 15.057419 125.312515 14.978058 C 126.299278 14.772758 127.381523 14.476883 128.559235 14.090401 C 129.736954 13.703918 130.857498 13.307808 131.920944 12.902023 C 132.98439 12.496246 133.813492 12.19091 134.408295 11.986015 C 134.725266 11.874954 134.971024 11.819183 135.145584 11.818733 C 135.385056 11.818115 135.542343 11.890739 135.617447 12.036621 C 135.692551 12.182503 135.730316 12.343025 135.730789 12.518196 C 135.731537 12.806679 135.688461 13.32019 135.601593 14.058762 C 135.514709 14.79734 135.456253 15.631516 135.426178 16.56134 L 135.510803 49.094734 C 135.513016 49.943016 135.740555 50.477875 136.193451 50.699337 C 136.646362 50.920792 137.167038 51.128754 137.755524 51.323212 C 138.166275 51.471592 138.494659 51.630127 138.740707 51.798843 C 138.986771 51.967556 139.110184 52.208702 139.110977 52.522289 C 139.111664 52.78994 139.005508 52.993561 138.792389 53.133148 C 138.57933 53.272728 138.29425 53.342987 137.93718 53.343922 C 137.160553 53.345943 136.410217 53.326607 135.686172 53.285919 C 134.962097 53.245239 134.25769 53.214153 133.572861 53.192661 C 132.888062 53.171165 132.192886 53.161339 131.48732 53.16317 C 130.820938 53.164906 130.167633 53.186203 129.527374 53.22707 C 128.887146 53.267937 128.231018 53.318634 127.558968 53.379185 C 126.886932 53.439732 126.158936 53.471024 125.374969 53.473064 Z M 111.297401 54.16748 C 109.173943 54.173004 107.275063 53.616615 105.600685 52.498291 C 103.926315 51.379967 102.603691 49.851925 101.632774 47.914108 C 100.66185 45.976292 100.173203 43.781548 100.166832 41.3298 C 100.160408 38.863354 100.730133 36.617317 101.876022 34.591621 C 103.021919 32.565918 104.568184 30.950024 106.514877 29.743881 C 108.461578 28.537739 110.614838 27.931614 112.974701 27.925476 C 114.638809 27.921146 116.143654 28.279049 117.489319 28.999195 C 118.834969 29.719345 119.908546 30.685177 120.71006 31.896725 C 121.511589 33.108265 121.914352 34.487583 121.918381 36.034695 C 121.922211 37.506477 121.320229 38.243931 120.112419 38.24707 L 108.33271 38.27771 C 107.783936 38.27914 107.38607 38.435284 107.139137 38.746143 C 106.892189 39.057011 106.76973 39.595535 106.771721 40.361748 C 106.775612 41.857418 107.110336 43.217766 107.775925 44.442829 C 108.441505 45.6679 109.348648 46.635086 110.49736 47.34441 C 111.646088 48.053741 112.963348 48.406464 114.449219 48.402603 C 115.593323 48.399628 116.644989 48.179462 117.604218 47.742107 C 118.563454 47.304752 119.510597 46.702065 120.445702 45.934029 C 120.570389 45.83387 120.703957 45.738129 120.846436 45.646805 C 120.988899 45.555481 121.118935 45.509666 121.236526 45.509357 C 121.646278 45.508293 121.851776 45.75214 121.85305 46.240898 C 121.854164 46.664112 121.695816 47.246681 121.378029 47.988613 C 120.985588 48.991035 120.330795 49.968712 119.413643 50.921669 C 118.49646 51.874626 117.347809 52.652699 115.967628 53.255909 C 114.587433 53.859116 113.030708 54.162971 111.297401 54.16748 Z M 108.347466 35.828369 L 111.866127 35.819225 C 112.967369 35.816357 113.730614 35.794773 114.155869 35.754467 C 114.581139 35.714157 114.978569 35.634731 115.348206 35.516174 C 115.544006 35.444618 115.695084 35.24456 115.801399 34.915993 C 115.907738 34.587425 115.960381 34.227154 115.959358 33.835175 C 115.956665 32.795181 115.599205 31.938648 114.886978 31.265549 C 114.174736 30.592445 113.277519 30.257313 112.195274 30.260128 C 111.389877 30.262222 110.625351 30.496639 109.901695 30.963398 C 109.178024 31.430153 108.587463 32.023952 108.129982 32.744804 C 107.672501 33.46566 107.461014 34.218021 107.495506 35.001907 C 107.496941 35.554363 107.78093 35.829853 108.347466 35.828369 Z M 76.909218 53.599129 C 76.613396 53.599899 76.343254 53.527565 76.098808 53.382122 C 75.854355 53.236679 75.731781 53.03014 75.731094 52.762486 C 75.73027 52.448898 75.855186 52.202667 76.105843 52.023781 C 76.356491 51.844902 76.681335 51.69614 77.080368 51.577507 C 77.953072 51.314934 78.53495 51.029228 78.825989 50.720398 C 79.117035 50.411564 79.261757 49.950607 79.26017 49.337517 L 79.225021 35.827873 C 79.222862 34.994293 79.112518 34.314426 78.894028 33.788261 C 78.675529 33.2621 78.204681 32.901962 77.481445 32.707848 C 77.292015 32.637295 77.114265 32.531799 76.948235 32.391369 C 76.782188 32.250923 76.698715 32.005844 76.697807 31.65612 C 76.696373 31.103668 76.936203 30.771389 77.41732 30.659283 C 78.660446 30.342453 80.032837 29.92654 81.534523 29.411518 C 83.036209 28.896492 84.325035 28.377285 85.401024 27.853882 C 85.603432 27.729023 85.845322 27.596558 86.126686 27.456482 C 86.408058 27.31641 86.620117 27.246193 86.762817 27.245819 C 87.119896 27.244896 87.298996 27.462162 87.300125 27.897633 C 87.300606 28.079536 87.291809 28.470013 87.273773 29.069069 C 87.25573 29.668118 87.229637 30.289238 87.195488 30.932426 C 87.161324 31.575623 87.141434 32.114342 87.135826 32.548607 C 87.136703 32.884243 87.208496 33.051872 87.351204 33.051502 C 87.943787 32.234135 88.637329 31.433975 89.431824 30.650997 C 90.226318 29.868015 91.088982 29.21854 92.019836 28.702553 C 92.950691 28.186565 93.884949 27.927357 94.822655 27.924919 C 96.160309 27.92144 97.118408 28.175728 97.697006 28.687786 C 98.275612 29.199844 98.565941 29.858875 98.568031 30.664898 C 98.569557 31.249199 98.407249 31.897617 98.081131 32.610172 C 97.754997 33.32272 97.335823 33.936279 96.823593 34.450874 C 96.311371 34.965466 95.76281 35.223518 95.177887 35.22504 C 94.814079 35.225983 94.438568 35.137844 94.051315 34.960625 C 93.66407 34.783401 93.26503 34.601002 92.854187 34.413425 C 92.475807 34.232506 92.097466 34.059544 91.719131 33.89455 C 91.340805 33.729549 90.994858 33.647453 90.681274 33.648273 C 89.676193 33.650887 88.806076 34.026608 88.0709 34.77544 C 87.335732 35.524273 86.971039 37.006947 86.976807 39.223499 L 87.001671 48.786362 C 87.003761 49.58564 87.247528 50.175282 87.732979 50.555283 C 88.218437 50.935295 88.999634 51.280685 90.076569 51.591473 C 90.508064 51.707947 90.833649 51.848888 91.053352 52.014305 C 91.273041 52.17971 91.383301 52.415531 91.384087 52.721771 C 91.385544 53.281574 91.058601 53.562325 90.403244 53.564034 C 89.227295 53.567089 88.005913 53.521267 86.739044 53.426567 C 85.472191 53.331863 84.329201 53.285843 83.310043 53.288486 C 82.643661 53.290222 81.96817 53.311577 81.283516 53.352562 C 80.598869 53.393539 79.894669 53.44437 79.170868 53.505051 C 78.44706 53.565727 77.693192 53.597092 76.909218 53.599129 Z M 62.145969 54.10791 C 62.146946 54.485813 62.316483 54.67432 62.654564 54.673439 C 62.883022 54.672844 63.130806 54.631165 63.397945 54.548401 C 63.665077 54.46563 63.921612 54.372169 64.167549 54.268024 C 65.253624 53.848709 66.553787 53.392868 68.068085 52.900475 C 69.582397 52.408081 71.28038 52.07737 73.162094 51.908333 C 73.557648 51.868103 73.825584 51.742615 73.965912 51.531868 C 74.106224 51.321106 74.175903 51.026787 74.174927 50.648891 C 74.17408 50.327953 74.075424 50.07235 73.878929 49.882072 C 73.682449 49.691799 73.405663 49.597122 73.048599 49.598053 C 72.902824 49.598427 72.638687 49.596367 72.25618 49.591843 C 71.87368 49.58733 71.589951 49.585312 71.404976 49.585793 C 71.130585 49.586502 70.885208 49.434025 70.668816 49.128349 C 70.452423 48.82267 70.343071 48.221199 70.340729 47.323917 L 70.305275 33.693012 C 70.304382 33.347572 70.332558 32.880791 70.389832 32.29266 C 70.447105 31.704533 70.504448 31.14397 70.561836 30.610962 C 70.619263 30.077957 70.667366 29.736687 70.706177 29.587135 C 70.777359 29.405048 70.830536 29.240765 70.865677 29.094288 C 70.900818 28.947815 70.918213 28.806896 70.917854 28.671547 C 70.916649 28.207901 70.629105 27.976826 70.055222 27.978317 C 69.944977 27.978607 69.81501 27.996857 69.665359 28.033077 C 69.515709 28.069298 69.385506 28.107151 69.274757 28.146637 C 68.537743 28.312088 67.789688 28.456432 67.030533 28.579681 C 66.27137 28.702927 65.305321 28.811546 64.132362 28.905556 C 62.959396 28.999557 61.37999 29.116817 59.394073 29.257343 C 59.016178 29.258327 58.684002 29.35014 58.397522 29.532795 C 58.111053 29.71545 57.968361 30.01532 57.969448 30.432411 C 57.970638 30.888706 58.097027 31.209309 58.348621 31.394241 C 58.60022 31.57917 58.950844 31.68697 59.400478 31.717651 C 60.017326 31.748508 60.56741 31.897896 61.050739 32.165825 C 61.534077 32.433754 61.908779 32.797199 62.174873 33.256172 C 62.44096 33.715149 62.574917 34.291904 62.576721 34.986454 L 62.601322 44.445499 C 62.603981 45.467724 62.473808 46.283722 62.210804 46.89352 C 61.947792 47.503319 61.697453 47.916927 61.45977 48.134365 C 60.909267 48.652733 60.332447 48.995533 59.729279 49.162773 C 59.126118 49.330017 58.507587 49.414467 57.873669 49.416115 C 57.211498 49.385986 56.602146 49.173058 56.045601 48.777313 C 55.489048 48.381561 55.055058 47.830547 54.74361 47.124249 C 54.432167 46.41795 54.275219 45.594433 54.272774 44.653664 L 54.24345 33.381084 C 54.241108 32.479511 54.276505 31.724861 54.349648 31.117085 C 54.422787 30.509315 54.533211 29.754463 54.680923 28.852505 C 54.718697 28.303623 54.473606 28.029877 53.945652 28.03125 C 53.738632 28.031788 53.525558 28.056381 53.306419 28.10503 C 53.087276 28.153683 52.886845 28.214066 52.705124 28.286201 C 51.318745 28.628517 49.957996 28.926189 48.622837 29.179249 C 47.28767 29.432304 45.793064 29.600185 44.138966 29.682888 C 43.872032 29.722778 43.658566 29.833885 43.498569 30.016209 C 43.33857 30.198524 43.258953 30.433929 43.259705 30.722404 C 43.260605 31.068451 43.355743 31.324066 43.545124 31.48925 C 43.734497 31.654434 43.943478 31.759998 44.172054 31.805954 C 45.074116 31.995319 45.689701 32.368546 46.018829 32.925663 C 46.347954 33.482773 46.513676 34.208435 46.516003 35.102646 L 46.544674 46.122585 C 46.548725 47.683174 46.838253 49.086666 47.413246 50.333099 C 47.988239 51.579536 48.770164 52.562359 49.759048 53.281593 C 50.747932 54.000832 51.853615 54.358856 53.076115 54.355675 C 54.88599 54.350967 56.620258 53.902565 58.278988 53.01046 C 59.93771 52.118355 61.28878 51.038879 62.332211 49.772003 C 62.36417 49.811119 62.388393 49.884094 62.404896 49.990929 C 62.421413 50.097763 62.42989 50.238762 62.430344 50.413933 C 62.431416 50.82674 62.383991 51.431526 62.288074 52.22831 C 62.192146 53.025085 62.144779 53.651615 62.145969 54.10791 Z M 1.426223 53.707275 C 1.723938 53.843697 2.095425 53.911331 2.540696 53.910172 C 3.745439 53.90704 4.882944 53.84528 5.953247 53.724899 C 7.023551 53.604523 8.141152 53.542816 9.306085 53.539787 C 10.467953 53.536766 11.538924 53.561543 12.519031 53.614113 C 13.499137 53.666687 14.565516 53.691475 15.718199 53.688477 C 16.163469 53.687317 16.494492 53.621536 16.711277 53.491119 C 16.928062 53.360714 17.036104 53.161686 17.03541 52.894035 C 17.033785 52.26992 16.562614 51.847008 15.62188 51.62529 C 13.940827 51.233997 12.846712 50.730637 12.339509 50.115185 C 11.832303 49.499741 11.721708 48.599689 12.007718 47.41502 C 12.134992 46.897755 12.279852 46.37096 12.442296 45.834614 C 12.604737 45.298275 12.774198 44.752274 12.950679 44.196598 C 13.127157 43.640923 13.311752 43.086159 13.504471 42.53228 C 13.697185 41.978401 13.867543 41.425053 14.015551 40.872204 C 14.107777 40.536942 14.225785 40.284447 14.369584 40.114723 C 14.513382 39.945 14.727678 39.859768 15.012481 39.859024 L 25.402182 39.832001 C 25.75803 39.831074 26.003832 39.908066 26.139593 40.062977 C 26.275356 40.217884 26.382841 40.452034 26.462051 40.765419 C 26.681532 41.551884 26.904463 42.372936 27.130856 43.228596 C 27.35725 44.084251 27.582817 44.917702 27.807564 45.728962 C 28.032312 46.540218 28.225889 47.319851 28.388304 48.067879 C 28.648264 49.112099 28.440201 49.886345 27.764109 50.390644 C 27.088015 50.894943 26.023352 51.295357 24.570095 51.591904 C 24.189339 51.671295 23.859442 51.817307 23.580399 52.029953 C 23.301353 52.242599 23.162275 52.518265 23.163157 52.856968 C 23.163849 53.124001 23.297146 53.332054 23.563042 53.48111 C 23.828941 53.630173 24.136133 53.704247 24.484636 53.703339 C 25.276569 53.701283 26.214493 53.672966 27.298447 53.618393 C 28.382393 53.563812 29.460995 53.519207 30.534277 53.484566 C 31.607565 53.449924 32.532803 53.431595 33.31004 53.429577 C 34.211605 53.427231 35.247803 53.445816 36.418667 53.485336 C 37.589523 53.524864 38.749798 53.564564 39.899532 53.604446 C 41.049267 53.644325 42.011204 53.663261 42.785374 53.661255 C 43.133865 53.660339 43.424606 53.588234 43.657589 53.444916 C 43.890572 53.301605 44.006714 53.096127 44.006016 52.828472 C 44.005047 52.45792 43.871593 52.185722 43.605633 52.011856 C 43.339664 51.83799 43.001968 51.692795 42.592529 51.576263 C 41.807983 51.357197 41.0965 51.08374 40.458054 50.755886 C 39.819607 50.428036 39.258369 49.993263 38.774326 49.451557 C 38.290283 48.909851 37.917381 48.240929 37.655621 47.444771 C 36.857174 44.943027 36.020607 42.378025 35.145882 39.749699 C 34.271156 37.121361 33.390362 34.448219 32.503464 31.730198 C 31.61656 29.012169 30.732298 26.298767 29.850622 23.589916 C 28.968952 20.881058 28.118601 18.198959 27.299543 15.543533 C 27.220369 15.24424 27.134979 14.969154 27.043375 14.718269 C 26.951767 14.467392 26.834282 14.215355 26.690918 13.962166 C 26.554853 13.691193 26.409237 13.571991 26.254055 13.604553 C 26.098873 13.6371 25.937515 13.705353 25.769966 13.809296 C 25.524408 14.063499 25.156733 14.402245 24.666933 14.825516 C 24.17713 15.248787 23.595722 15.595123 22.922693 15.864525 C 22.184742 16.133488 21.510975 16.351742 20.901382 16.519321 C 20.291786 16.686886 19.634142 16.862537 18.928429 17.046276 C 18.825294 17.191093 18.696278 17.626595 18.541374 18.352779 C 18.386467 19.078979 18.020144 20.23138 17.442392 21.81002 C 16.629375 24.066681 15.816711 26.278435 15.004381 28.445366 C 14.192051 30.612289 13.377043 32.747036 12.559335 34.849667 C 11.741632 36.952301 10.899174 39.070122 10.031936 41.203201 C 9.164701 43.336277 8.249512 45.513851 7.286346 47.735992 C 6.85462 48.705444 6.2164 49.520927 5.371674 50.182461 C 4.526946 50.843994 3.531112 51.333038 2.384147 51.649612 C 1.982704 51.782341 1.647787 51.940773 1.379387 52.124908 C 1.110987 52.309044 0.97727 52.58638 0.978234 52.956932 C 0.979181 53.32074 1.128509 53.570858 1.426223 53.707275 Z M 24.308083 36.689156 L 16.640522 36.709103 C 16.377157 36.709789 16.137568 36.666771 15.921751 36.580055 C 15.70593 36.493336 15.597769 36.351986 15.597258 36.155991 C 15.596888 36.013283 15.635675 35.856396 15.713628 35.685307 L 20.354488 22.424416 C 20.524221 21.98299 20.648285 21.762173 20.726681 21.761967 C 20.844275 21.761662 20.973171 21.985497 21.113371 22.433464 L 25.058758 35.660999 C 25.098345 35.810341 25.128021 35.917908 25.147793 35.983696 C 25.167562 36.049484 25.177635 36.153732 25.178005 36.296436 C 25.178684 36.556744 24.88871 36.687649 24.308083 36.689156 Z"/>
</svg>
