<?xml version="1.0" encoding="UTF-8"?>
<!-- Generated by Pixelmator Pro 3.7.1 -->
<svg width="400" height="80" viewBox="0 0 400 80" xmlns="http://www.w3.org/2000/svg">
    <path id="Aurelian-Epura" fill="#000000" fill-rule="evenodd" stroke="none" d="M 360.82843 51.995556 C 359.662445 52.000713 358.531189 51.864384 357.434601 51.586563 C 356.338013 51.308739 355.34668 50.85379 354.460541 50.221703 C 354.140198 49.693108 353.90686 48.863808 353.760529 47.733772 C 353.614197 46.603737 353.555969 45.420326 353.585815 44.18351 C 353.583954 43.75951 353.93634 43.545952 354.642975 43.542828 C 354.925659 43.541576 355.173401 43.628815 355.386169 43.804546 C 355.598938 43.98027 355.723389 44.156391 355.759491 44.332897 C 356.437408 45.813923 357.220306 47.073627 358.108246 48.112049 C 358.996155 49.150471 360.058472 49.666939 361.295105 49.661469 C 362.249115 49.657249 362.972137 49.362556 363.464233 48.777367 C 363.956329 48.192184 364.200714 47.528603 364.197449 46.786606 C 364.193359 45.867947 363.82782 45.101063 363.100769 44.485935 C 362.373688 43.870808 361.496674 43.300518 360.469666 42.775055 C 359.442657 42.249588 358.468353 41.653229 357.546722 40.985962 C 356.625092 40.318695 355.870728 39.518196 355.283569 38.584446 C 354.696442 37.650696 354.399994 36.530174 354.394226 35.222851 C 354.388123 33.844852 354.762634 32.641865 355.517761 31.613846 C 356.272888 30.585823 357.294006 29.777473 358.581085 29.18877 C 359.868164 28.600075 361.306671 28.302208 362.896667 28.295177 C 364.062653 28.29002 365.140869 28.417755 366.131378 28.678379 C 367.121887 28.938999 367.794342 29.192192 368.148773 29.437962 C 368.432983 29.790047 368.665588 30.451519 368.846558 31.422394 C 369.027496 32.393276 369.120544 33.4617 369.125702 34.627693 C 369.127411 35.016357 368.810303 35.212093 368.174316 35.214905 C 367.926971 35.216 367.67041 35.128799 367.404663 34.953308 C 367.138855 34.777817 366.970245 34.601894 366.898804 34.425541 C 366.43338 33.049576 365.836975 32.018715 365.109589 31.33292 C 364.382233 30.647129 363.576874 30.30619 362.693542 30.310097 C 361.916229 30.313534 361.210693 30.563988 360.576874 31.061462 C 359.943054 31.558941 359.628021 32.231667 359.631775 33.079662 C 359.63504 33.821659 359.982483 34.482624 360.674042 35.062572 C 361.365631 35.642525 362.225006 36.212891 363.252136 36.773689 C 365.554138 37.964859 367.202209 39.114738 368.196472 40.223358 C 369.190704 41.331978 369.691864 42.804928 369.700012 44.64225 C 369.710144 46.938908 368.967285 48.735359 367.471344 50.031662 C 365.975372 51.327961 363.761078 51.98259 360.82843 51.995556 Z M 360.045135 66.627167 C 359.267822 66.6306 358.878113 66.402657 358.876099 65.943329 C 358.874695 65.625328 359.138458 65.341492 359.667358 65.09182 C 360.407928 64.770538 361.05957 64.308327 361.622223 63.705162 C 362.184906 63.101997 362.464355 62.376427 362.460602 61.528435 C 362.457184 60.751102 362.260345 60.186638 361.870148 59.835026 C 361.479919 59.483414 360.895721 59.220997 360.117615 59.047768 C 359.480865 58.873917 358.984924 58.58461 358.629791 58.17984 C 358.274658 57.77507 358.095367 57.184029 358.091949 56.4067 C 358.088959 55.735374 358.369049 55.151131 358.93219 54.653969 C 359.495331 54.156807 360.289215 53.90596 361.313873 53.901428 C 362.86853 53.894554 364.116272 54.401367 365.057129 55.42189 C 365.997986 56.44241 366.471863 57.72998 366.478729 59.284641 C 366.48407 60.48597 366.232544 61.538246 365.724213 62.441505 C 365.21582 63.344772 364.592072 64.107193 363.852814 64.728806 C 363.113525 65.350418 362.391266 65.821777 361.686035 66.142899 C 360.980774 66.464027 360.433807 66.625443 360.045135 66.627167 Z M 335.936401 52.10564 C 334.981873 52.109863 334.097137 51.888111 333.282196 51.44038 C 332.467285 50.992649 331.815521 50.394867 331.326935 49.647011 C 330.838318 48.899155 330.592133 48.091301 330.588287 47.223431 C 330.582916 46.006092 330.958374 44.990807 331.714722 44.177544 C 332.471069 43.364285 333.58844 42.63142 335.066833 41.978935 L 339.768921 39.906025 C 340.474182 39.590973 340.90976 39.305416 341.075623 39.049339 C 341.241516 38.793262 341.326263 38.326515 341.329895 37.649082 L 341.378723 34.647713 C 341.409607 33.641666 341.229584 32.854637 340.838684 32.28661 C 340.447784 31.718582 339.855927 31.436321 339.063171 31.439827 C 338.620392 31.441788 338.163422 31.539322 337.692261 31.732426 C 337.221039 31.925533 336.86734 32.14959 336.631073 32.404594 C 336.506348 32.546482 336.423615 32.715374 336.382782 32.911266 C 336.341949 33.107162 336.321991 33.306141 336.322876 33.508202 C 336.323761 33.707504 336.340912 33.96056 336.374268 34.267376 C 336.407684 34.574188 336.424805 34.827244 336.425659 35.026543 C 336.426697 35.261177 336.141968 35.544415 335.571472 35.876259 C 335.000977 36.208103 334.348358 36.504974 333.613586 36.76688 C 332.878815 37.028786 332.247803 37.1609 331.720581 37.163231 C 331.457245 37.164394 331.235809 37.06324 331.056305 36.85976 C 330.876801 36.656281 330.786346 36.396927 330.784973 36.081688 C 330.782471 35.516357 330.972809 34.956806 331.356018 34.403023 C 331.739166 33.849236 332.36618 33.215157 333.236938 32.500759 C 334.16214 31.725952 335.172882 31.038967 336.269165 30.439793 C 337.365448 29.840618 338.44458 29.35788 339.506561 28.991562 C 340.568542 28.625248 341.481567 28.440403 342.245636 28.437023 C 344.126587 28.428703 345.636993 29.031937 346.776917 30.246746 C 347.91684 31.461548 348.458923 33.073582 348.403198 35.08289 L 348.185638 45.804859 C 348.153839 46.60498 348.295715 47.28466 348.611206 47.843914 C 348.926697 48.403168 349.323761 48.681732 349.802429 48.679615 C 350.482605 48.676605 351.062683 48.450722 351.542664 48.001957 C 351.660828 47.882736 351.772919 47.822891 351.878937 47.822422 C 352.055603 47.82164 352.204498 47.881298 352.325653 48.001396 C 352.446808 48.12149 352.507813 48.269867 352.508575 48.446533 C 352.510437 48.863907 352.188141 49.398922 351.541809 50.05159 C 350.89209 50.706486 350.190552 51.203426 349.437042 51.542427 C 348.683563 51.881432 347.908234 52.052696 347.111053 52.056221 C 345.137878 52.064949 343.496002 51.066589 342.185303 49.061119 L 342.07019 49.061626 C 340.908936 50.136715 339.85733 50.911659 338.915344 51.386482 C 337.973389 51.861305 336.980408 52.101021 335.936401 52.10564 Z M 339.063843 48.635181 C 339.451935 48.633465 339.77713 48.567848 340.039337 48.438324 C 340.301575 48.308807 340.539703 48.107208 340.753845 47.833527 C 340.871857 47.6856 340.963226 47.497486 341.027924 47.269188 C 341.092621 47.040886 341.127289 46.764969 341.131927 46.441422 L 341.264923 42.62645 C 341.269531 42.295727 341.221802 42.078556 341.121704 41.97493 C 341.021576 41.871304 340.894501 41.819832 340.740479 41.820511 C 340.6698 41.820824 340.582489 41.831562 340.478516 41.852726 C 340.374542 41.87389 340.253723 41.92342 340.116028 42.001324 C 339.085846 42.503315 338.325684 43.016109 337.835571 43.539726 C 337.345398 44.063347 337.102814 44.886333 337.107758 46.008713 C 337.112213 47.01405 337.331146 47.703602 337.764526 48.077385 C 338.197906 48.451164 338.631012 48.637096 339.063843 48.635181 Z M 309.287476 51.640488 C 309.020813 51.641666 308.777222 51.576908 308.556641 51.446213 C 308.33606 51.31551 308.22522 51.129536 308.224152 50.888275 C 308.2229 50.60561 308.335114 50.383453 308.56076 50.221798 C 308.786377 50.060143 309.078949 49.925518 309.438416 49.817928 C 310.22467 49.579811 310.748688 49.321327 311.010529 49.042465 C 311.272369 48.763607 311.402069 48.347866 311.399628 47.795235 L 311.345764 35.617775 C 311.342438 34.866394 311.241852 34.25375 311.044067 33.779827 C 310.846252 33.305901 310.421234 32.982052 309.768982 32.80827 C 309.598114 32.74498 309.437714 32.650177 309.287842 32.523865 C 309.137939 32.397545 309.062286 32.176769 309.060883 31.86153 C 309.058685 31.363552 309.274353 31.063644 309.707825 30.961803 C 310.827881 30.674175 312.06424 30.29702 313.416992 29.830318 C 314.769775 29.363613 315.930664 28.893486 316.899689 28.419926 C 317.08194 28.307045 317.299744 28.187244 317.553162 28.060524 C 317.80658 27.9338 317.997589 27.870155 318.12619 27.869587 C 318.448059 27.868164 318.609863 28.063713 318.611603 28.456245 C 318.612305 28.620213 318.605042 28.972198 318.589783 29.512211 C 318.574493 30.052223 318.552002 30.612137 318.522247 31.191963 C 318.492523 31.771793 318.475464 32.257423 318.47113 32.648876 C 318.472473 32.951416 318.537476 33.102398 318.666107 33.10183 C 319.198914 32.364086 319.822754 31.641689 320.537598 30.934612 C 321.252472 30.227531 322.029022 29.640682 322.867249 29.174046 C 323.705475 28.707413 324.54718 28.472229 325.392426 28.468491 C 326.598145 28.463158 327.462189 28.6908 327.984589 29.151417 C 328.506958 29.612034 328.769745 30.205605 328.77298 30.932144 C 328.775299 31.458828 328.630096 32.043575 328.33728 32.686401 C 328.044464 33.329224 327.667633 33.882973 327.206757 34.347668 C 326.74588 34.812355 326.251831 35.045864 325.724609 35.048195 C 325.396667 35.049644 325.058044 34.970814 324.70871 34.811703 C 324.359314 34.652592 323.999359 34.488834 323.628693 34.320427 C 323.287323 34.157967 322.946014 34.002682 322.604706 33.854576 C 322.263428 33.706467 321.951447 33.633038 321.668793 33.634289 C 320.762817 33.638294 319.979126 33.978397 319.317657 34.654594 C 318.656219 35.330799 318.329926 36.66787 318.338745 38.665848 L 318.376862 47.285717 C 318.380066 48.00618 318.600769 48.537277 319.038971 48.879013 C 319.477203 49.220757 320.181915 49.530807 321.153168 49.809181 C 321.542297 49.913464 321.835999 50.03997 322.034332 50.188713 C 322.232635 50.337452 322.332367 50.549835 322.333618 50.825878 C 322.335846 51.330479 322.041595 51.584084 321.450867 51.586697 C 320.3909 51.591385 319.289856 51.552086 318.147766 51.468803 C 317.005676 51.385517 315.975311 51.345909 315.056641 51.349968 C 314.455963 51.352627 313.847107 51.372986 313.230042 51.411049 C 312.612976 51.449112 311.978271 51.496086 311.325958 51.551971 C 310.673645 51.607857 309.994141 51.637363 309.287476 51.640488 Z M 296.440186 52.632263 C 296.135437 52.633614 295.9823 52.463974 295.980804 52.123337 C 295.978973 51.712036 296.02066 51.147209 296.105835 50.428841 C 296.190979 49.710468 296.232727 49.165237 296.23111 48.793137 C 296.230408 48.635242 296.222504 48.50816 296.207458 48.411888 C 296.192383 48.315613 296.170441 48.249874 296.141571 48.214668 C 295.203094 49.358337 293.98703 50.333588 292.493347 51.14045 C 290.999634 51.947311 289.437103 52.354343 287.805725 52.361557 C 286.703735 52.366432 285.706543 52.045525 284.813965 51.398834 C 283.921417 50.75214 283.214966 49.867516 282.694611 48.744926 C 282.174286 47.622345 281.911011 46.357719 281.904785 44.951019 L 281.86087 35.017757 C 281.8573 34.21172 281.706726 33.557888 281.409119 33.056252 C 281.111542 32.554611 280.556061 32.219196 279.742615 32.049984 C 279.536499 32.008938 279.347961 31.914124 279.177002 31.765537 C 279.006012 31.616955 278.91983 31.3867 278.918427 31.074776 C 278.917297 30.814747 278.988678 30.602432 279.132599 30.437824 C 279.27652 30.273216 279.46875 30.172714 279.70932 30.136318 C 281.200165 30.059055 282.547119 29.905277 283.750214 29.67498 C 284.953308 29.444683 286.179382 29.174126 287.428528 28.863293 C 287.592194 28.797974 287.772736 28.74321 287.970215 28.698997 C 288.167664 28.654785 288.35968 28.632267 288.546265 28.631439 C 289.022186 28.629337 289.243561 28.87569 289.210419 29.37051 C 289.078766 30.183773 288.980438 30.864376 288.915527 31.412334 C 288.850586 31.960297 288.819885 32.640598 288.823486 33.453262 L 288.868439 43.614258 C 288.872192 44.462254 289.015015 45.204311 289.296906 45.840454 C 289.578827 46.476597 289.970917 46.972565 290.473206 47.328377 C 290.975555 47.684185 291.525146 47.875122 292.122101 47.901192 C 292.693512 47.898663 293.250885 47.821529 293.794312 47.669785 C 294.337708 47.518044 294.857086 47.208096 295.352478 46.739941 C 295.566345 46.543552 295.791321 46.170319 296.027435 45.620216 C 296.263489 45.070118 296.379456 44.33437 296.375397 43.412945 L 296.337677 34.886654 C 296.33493 34.260593 296.213226 33.740932 295.972626 33.327652 C 295.732025 32.914371 295.393677 32.587379 294.957581 32.346661 C 294.521454 32.105946 294.02536 31.972191 293.469269 31.945393 C 293.063934 31.918472 292.747711 31.821877 292.52063 31.655598 C 292.293549 31.489315 292.179077 31.200531 292.177246 30.78923 C 292.175598 30.413265 292.303741 30.142731 292.561646 29.977619 C 292.81958 29.812504 293.118835 29.729198 293.459473 29.727692 C 295.249359 29.597763 296.672821 29.489471 297.72995 29.402813 C 298.787109 29.316151 299.657745 29.216652 300.341827 29.104313 C 301.02594 28.991974 301.699982 28.860634 302.364044 28.710289 C 302.463806 28.674515 302.581116 28.640179 302.715942 28.607285 C 302.8508 28.57439 302.967896 28.557724 303.067261 28.557285 C 303.584564 28.554996 303.844147 28.762814 303.846008 29.18074 C 303.846558 29.302746 303.831085 29.429798 303.799652 29.561882 C 303.768188 29.693974 303.720551 29.842144 303.656708 30.006393 C 303.621948 30.141262 303.579163 30.448959 303.528259 30.929504 C 303.477386 31.410049 303.426636 31.915428 303.375977 32.44566 C 303.325317 32.975891 303.30069 33.39669 303.302063 33.708065 L 303.356384 45.994831 C 303.359985 46.803631 303.459534 47.345612 303.65509 47.620792 C 303.850647 47.895973 304.072083 48.033016 304.319427 48.031921 C 304.486145 48.031185 304.741882 48.032539 305.0867 48.03598 C 305.431488 48.039429 305.669586 48.040855 305.800995 48.040276 C 306.122833 48.038853 306.372498 48.123737 306.549927 48.29493 C 306.727356 48.466122 306.816681 48.696358 306.817963 48.985649 C 306.819458 49.326279 306.757172 49.591694 306.631012 49.781898 C 306.504883 49.972099 306.26355 50.085651 305.907074 50.122562 C 304.211182 50.278023 302.681152 50.578911 301.317017 51.025238 C 299.95282 51.471565 298.781616 51.884594 297.803314 52.264343 C 297.581818 52.358627 297.350739 52.443291 297.110077 52.518333 C 296.869385 52.593376 296.646118 52.631355 296.440186 52.632263 Z M 251.045685 65.627678 C 250.81105 65.628716 250.573792 65.566963 250.333923 65.442421 C 250.09404 65.317886 249.973572 65.135262 249.972504 64.894554 C 249.971252 64.611893 250.088257 64.386398 250.323532 64.218079 C 250.558823 64.049751 250.846527 63.911835 251.186691 63.804329 C 251.947525 63.56633 252.473251 63.31736 252.76387 63.057419 C 253.054504 62.797478 253.198517 62.372154 253.195908 61.781425 L 253.083603 36.388878 C 253.081711 35.961014 252.993118 35.529953 252.817841 35.09568 C 252.642563 34.661407 252.392044 34.281437 252.066254 33.955765 C 251.740463 33.630093 251.335037 33.429962 250.849976 33.355366 C 250.650375 33.291653 250.493179 33.196701 250.378326 33.070503 C 250.263489 32.944309 250.205368 32.723591 250.203979 32.408352 C 250.202682 32.115753 250.258881 31.901707 250.372559 31.76622 C 250.486252 31.63073 250.624985 31.54496 250.788803 31.5089 C 252.014252 31.214188 253.334671 30.834862 254.750107 30.370918 C 256.165558 29.906975 257.383118 29.423485 258.402802 28.920437 C 258.553833 28.861797 258.70871 28.779819 258.867554 28.674496 C 259.026337 28.569176 259.167023 28.516239 259.289612 28.515697 C 259.504913 28.514748 259.641022 28.581638 259.697906 28.71637 C 259.754852 28.851109 259.783661 29.000458 259.784363 29.164421 C 259.785645 29.453716 259.743561 29.921238 259.658081 30.567009 C 259.572601 31.212784 259.530914 31.776646 259.533051 32.258614 C 259.534576 32.599247 259.567474 32.801716 259.631805 32.866028 C 259.983582 32.511131 260.611816 32.036045 261.516541 31.440754 C 262.421295 30.845463 263.458771 30.30991 264.629028 29.834076 C 265.799255 29.358242 266.932068 29.117908 268.027405 29.113064 C 269.922668 29.104683 271.539032 29.605171 272.876556 30.614555 C 274.21402 31.623936 275.238068 32.917217 275.948669 34.494438 C 276.659302 36.071655 277.018402 37.719555 277.026001 39.438179 C 277.033295 41.086143 276.725555 42.691303 276.102814 44.253719 C 275.480072 45.816132 274.609314 47.22945 273.49057 48.493717 C 272.371857 49.757988 271.075287 50.762711 269.600922 51.507935 C 268.126556 52.253151 266.53006 52.629555 264.811462 52.637154 C 264.432709 52.638832 263.971069 52.590355 263.426575 52.49173 C 262.88205 52.393108 262.333252 52.257652 261.780121 52.085358 C 261.226959 51.913071 260.72995 51.726868 260.289063 51.526756 C 260.253723 51.526909 260.218628 51.578133 260.183746 51.680424 C 260.148865 51.782715 260.122925 51.909809 260.105927 52.06171 C 260.088928 52.213608 260.080719 52.356911 260.081329 52.491619 L 260.120148 61.272972 C 260.122314 61.761009 260.237122 62.158829 260.464569 62.466446 C 260.692017 62.774055 261.015656 63.024929 261.435577 63.219063 C 261.855438 63.4132 262.358429 63.605583 262.944489 63.796227 C 263.314301 63.900589 263.603058 64.028641 263.81076 64.180374 C 264.018463 64.332108 264.122955 64.549301 264.124207 64.83197 C 264.125122 65.043968 264.03537 65.220345 263.854889 65.361099 C 263.674438 65.501846 263.463593 65.572762 263.222321 65.573822 C 262.168945 65.578484 261.065735 65.5392 259.912598 65.455963 C 258.75946 65.372726 257.723572 65.333145 256.804901 65.337204 C 256.204254 65.339859 255.595383 65.360222 254.978302 65.398285 C 254.361237 65.436348 253.72821 65.483307 253.079193 65.539185 C 252.430191 65.595055 251.75235 65.62455 251.045685 65.627678 Z M 264.639862 50.16925 C 265.024689 50.167549 265.494812 50.020958 266.050323 49.729485 C 266.605804 49.438011 267.153229 48.95224 267.692657 48.272163 C 268.232117 47.592083 268.683014 46.686882 269.045441 45.556526 C 269.407837 44.426174 269.585419 43.035656 269.578094 41.384933 C 269.56955 39.450996 269.370209 37.910046 268.980011 36.762043 C 268.589874 35.614037 268.113464 34.752274 267.550812 34.176723 C 266.98819 33.601166 266.416077 33.223175 265.834473 33.042728 C 265.252869 32.862282 264.75174 32.772991 264.331055 32.774853 C 263.686218 32.777702 263.029877 32.921112 262.362 33.205082 C 261.694122 33.489048 261.145996 33.823826 260.717621 34.209423 C 260.289276 34.59502 260.075775 34.940464 260.077118 35.24577 C 260.078491 35.559349 260.079315 36.120953 260.07959 36.930592 C 260.079865 37.740234 260.073334 38.639191 260.060059 39.627495 C 260.046753 40.615799 260.040375 41.517239 260.040955 42.331848 C 260.041504 43.146458 260.04245 43.698395 260.043732 43.987686 C 260.047394 44.821331 260.233307 45.722195 260.60141 46.690319 C 260.969513 47.65844 261.496124 48.481339 262.181244 49.159035 C 262.866333 49.836735 263.685852 50.17347 264.639862 50.16925 Z M 220.233353 52.140324 C 219.889954 52.141842 219.620056 52.062706 219.42363 51.902916 C 219.227203 51.743126 219.128525 51.557236 219.127579 51.345238 C 219.12532 50.834011 219.518463 50.470657 220.306992 50.255165 C 221.502991 49.915863 222.35289 49.534893 222.856735 49.112247 C 223.36058 48.689598 223.610016 47.914616 223.605026 46.787266 L 223.498398 22.676643 C 223.493286 21.520584 223.262466 20.700245 222.805969 20.215595 C 222.349442 19.730946 221.492599 19.353382 220.235397 19.082897 C 219.779449 18.978912 219.460358 18.824501 219.278091 18.619648 C 219.095825 18.414803 219.004211 18.203072 219.00325 17.984444 C 219.002182 17.74374 219.106491 17.549774 219.316193 17.402538 C 219.525894 17.25531 219.802429 17.180935 220.145813 17.179417 C 221.024719 17.175529 221.925247 17.189213 222.847382 17.22047 C 223.769501 17.251724 224.673843 17.288719 225.56041 17.331448 C 226.446976 17.37418 227.291351 17.393768 228.093521 17.390221 C 229.925873 17.382118 231.885101 17.357445 233.971268 17.316196 C 236.057449 17.274952 237.908966 17.236122 239.525879 17.199707 C 240.66922 17.18858 241.612289 17.121746 242.355133 16.99921 C 243.097992 16.876675 243.54007 16.815094 243.681396 16.814468 C 243.945297 16.813301 244.219727 16.88372 244.504669 17.02573 C 244.789627 17.167736 244.950607 17.428299 244.987625 17.807419 C 245.141098 19.056675 245.330505 20.28257 245.555832 21.485134 C 245.781158 22.687695 245.895828 23.743603 245.899841 24.652874 C 245.901382 25.000134 245.8302 25.256062 245.686279 25.420673 C 245.542358 25.585278 245.382065 25.667973 245.205399 25.668755 C 245.028748 25.669537 244.846954 25.604362 244.660034 25.473244 C 244.473129 25.342117 244.314713 25.130543 244.184784 24.838509 C 243.830276 23.950108 243.512512 23.18922 243.231445 22.555836 C 242.950394 21.922447 242.627426 21.424934 242.262558 21.063271 C 241.853256 20.644386 241.347534 20.266651 240.745361 19.930058 C 240.143204 19.593456 239.37619 19.427223 238.44426 19.431343 L 234.456055 19.448982 C 233.680923 19.452408 233.01796 19.657814 232.467117 20.065212 C 231.916275 20.47261 231.642471 21.039562 231.645691 21.766106 L 231.690002 31.785492 C 231.69191 32.219425 231.812286 32.536201 232.051117 32.735832 C 232.289948 32.935459 232.605362 33.034409 232.99733 33.032677 L 237.63562 33.012161 C 238.573593 33.008015 239.242722 32.696301 239.643021 32.077019 C 240.043304 31.457733 240.394165 30.710728 240.695602 29.835991 C 240.962631 29.173401 241.322784 28.84111 241.776047 28.839108 C 241.946091 28.838352 242.103867 28.937309 242.24939 29.135971 C 242.394928 29.334629 242.453873 29.618969 242.426254 29.988995 C 242.399445 30.419743 242.363815 30.882545 242.319351 31.377415 C 242.274872 31.872288 242.24324 32.363091 242.224411 32.849842 C 242.205582 33.336594 242.197189 33.80825 242.199203 34.26482 C 242.201141 34.70483 242.212051 35.172806 242.231918 35.668777 C 242.251785 36.164742 242.278961 36.663151 242.313461 37.164021 C 242.347977 37.664894 242.380615 38.145477 242.411346 38.605785 C 242.471436 39.084732 242.446487 39.434452 242.336487 39.654945 C 242.226501 39.875439 242.080139 39.986092 241.8974 39.9869 C 241.309418 39.989498 240.886475 39.541973 240.628555 38.64431 C 240.325134 37.572384 239.973709 36.756027 239.57428 36.195213 C 239.17485 35.634399 238.636429 35.355492 237.95903 35.358486 L 232.986176 35.380478 C 232.559433 35.382366 232.239807 35.484951 232.027328 35.688232 C 231.81485 35.891514 231.709549 36.206528 231.711441 36.633286 L 231.755859 46.679173 C 231.760513 47.731991 231.98848 48.470085 232.439743 48.893475 C 232.891022 49.316864 233.587036 49.526474 234.527771 49.522316 L 239.101456 49.50209 C 239.884308 49.498627 240.626312 49.404526 241.327484 49.219788 C 242.028656 49.035049 242.631989 48.735916 243.137543 48.322369 C 243.729477 47.844402 244.273575 47.228355 244.769897 46.474213 C 245.266205 45.720066 245.72287 44.928017 246.139877 44.098034 C 246.273392 43.827473 246.417953 43.650166 246.573532 43.566113 C 246.729141 43.482059 246.909637 43.442616 247.115021 43.447781 C 247.320435 43.453495 247.46225 43.561489 247.540482 43.771767 C 247.618698 43.982044 247.65834 44.207535 247.659409 44.448242 C 247.661972 45.027374 247.576569 45.693012 247.403229 46.445175 C 247.229889 47.197338 247.012558 47.990814 246.751251 48.82563 C 246.489944 49.660439 246.240448 50.484978 246.002792 51.299259 C 245.927139 51.546928 245.780106 51.723419 245.561661 51.828732 C 245.343231 51.934044 245.09903 51.987293 244.829056 51.988487 C 244.37912 51.990479 243.531219 51.983738 242.28537 51.968269 C 241.039505 51.952797 239.567261 51.931152 237.868637 51.903332 C 236.170013 51.875511 234.418152 51.855103 232.613037 51.842102 C 230.807907 51.829109 229.132736 51.826027 227.587463 51.832863 C 226.868118 51.836044 226.080948 51.858845 225.225937 51.901276 C 224.370926 51.943703 223.512939 51.993317 222.651932 52.050125 C 221.790924 52.106934 220.984726 52.137001 220.233353 52.140324 Z M 178.240753 52.220032 C 178.009979 52.221054 177.77533 52.156254 177.536804 52.025635 C 177.298279 51.895016 177.178482 51.709084 177.177414 51.467819 C 177.176163 51.185154 177.302994 50.962933 177.557892 50.801147 C 177.81279 50.639359 178.090729 50.504803 178.391693 50.397472 C 178.920929 50.224533 179.388885 50.020817 179.795563 49.786312 C 180.202255 49.551807 180.404022 49.08123 180.400909 48.374565 L 180.347244 36.240997 C 180.343918 35.489616 180.229401 34.843906 180.003693 34.303856 C 179.777985 33.763805 179.336075 33.429543 178.677979 33.301056 C 178.536453 33.260273 178.405075 33.167 178.283783 33.021233 C 178.162506 32.875462 178.101212 32.652969 178.099884 32.353741 C 178.097656 31.84914 178.269958 31.549423 178.616821 31.454586 C 179.822922 31.160511 181.146774 30.773304 182.588364 30.292957 C 184.029953 29.812611 185.251114 29.302193 186.251877 28.761688 C 186.414978 28.690296 186.583923 28.598732 186.758728 28.486988 C 186.933517 28.375244 187.088547 28.319077 187.223801 28.318478 C 187.439117 28.317524 187.573563 28.381248 187.627121 28.509651 C 187.680695 28.63805 187.70784 28.784233 187.708557 28.948196 C 187.709778 29.224239 187.667618 29.677135 187.582077 30.3069 C 187.496521 30.936657 187.454834 31.498863 187.457016 31.99353 C 187.457642 32.134861 187.467163 32.28899 187.48558 32.455917 C 187.503983 32.622841 187.530914 32.723892 187.566406 32.759068 C 188.769333 31.616989 189.980225 30.721127 191.199142 30.071445 C 192.418045 29.421764 193.84346 29.093323 195.475403 29.086105 C 197.322113 29.077938 198.871735 29.748901 200.124329 31.099022 C 201.376923 32.449146 202.008392 34.296795 202.018768 36.642036 L 202.070419 48.3218 C 202.073547 49.028458 202.279434 49.488541 202.68811 49.702049 C 203.096771 49.915558 203.566483 50.109467 204.09726 50.283791 C 204.380402 50.388538 204.633163 50.523926 204.85556 50.689949 C 205.077972 50.855972 205.189789 51.080315 205.19104 51.36298 C 205.192108 51.60424 205.090912 51.787979 204.887466 51.9142 C 204.684036 52.040428 204.476318 52.104008 204.264313 52.104942 C 203.557648 52.10807 202.894089 52.084503 202.27359 52.034248 C 201.653091 51.983994 201.050171 51.94249 200.464813 51.909744 C 199.87944 51.876999 199.268768 51.862034 198.632782 51.864845 C 198.03212 51.8675 197.436096 51.887806 196.844696 51.925758 C 196.253296 51.963707 195.653244 52.010525 195.04454 52.066216 C 194.435837 52.12191 193.778152 52.151321 193.071487 52.154442 C 192.865555 52.155357 192.665985 52.093575 192.472763 51.969109 C 192.279526 51.844635 192.182388 51.661774 192.18132 51.420513 C 192.180069 51.137848 192.28273 50.91256 192.489288 50.744637 C 192.695862 50.576714 192.940231 50.439133 193.222427 50.331886 C 193.751663 50.152874 194.197815 49.95491 194.560974 49.737991 C 194.924118 49.521065 195.104111 49.05928 195.100998 48.352619 L 195.054276 37.787502 C 195.048294 36.436012 194.733902 35.379471 194.111084 34.617851 C 193.488266 33.856239 192.670059 33.47464 191.656403 33.473049 C 190.876862 33.476498 190.184402 33.595772 189.578964 33.830883 C 188.973526 34.06599 188.358795 34.412659 187.734756 34.870892 C 187.593918 34.984142 187.488586 35.134083 187.418747 35.320724 C 187.348907 35.507362 187.314377 35.692051 187.315186 35.874786 L 187.370529 48.386806 C 187.373642 49.093468 187.565048 49.55513 187.944748 49.771805 C 188.324432 49.98848 188.765305 50.181 189.267349 50.349373 C 189.965134 50.587002 190.315063 50.940445 190.317139 51.409714 C 190.318069 51.621712 190.230545 51.801247 190.05452 51.94833 C 189.878494 52.095413 189.671799 52.169479 189.434402 52.170528 C 188.727737 52.173653 188.077011 52.150032 187.482178 52.099663 C 186.88736 52.049294 186.318939 52.007637 185.776901 51.974701 C 185.234894 51.941765 184.645889 51.926704 184.009888 51.929512 C 183.409241 51.932171 182.800369 51.95253 182.183304 51.990593 C 181.566223 52.028656 180.931549 52.07563 180.279205 52.131516 C 179.626892 52.187401 178.947403 52.216908 178.240753 52.220032 Z M 158.938156 52.888401 C 157.983612 52.892624 157.098877 52.670872 156.283951 52.223141 C 155.469009 51.775414 154.817261 51.177628 154.328659 50.429771 C 153.840057 49.681915 153.593842 48.874062 153.590012 48.006195 C 153.584625 46.788857 153.960114 45.773571 154.716476 44.960308 C 155.472824 44.147045 156.590179 43.414181 158.068558 42.761696 L 162.77063 40.688789 C 163.475922 40.373737 163.911484 40.088177 164.077362 39.8321 C 164.24324 39.576027 164.327988 39.10928 164.331619 38.431847 L 164.380463 35.430473 C 164.411331 34.424427 164.231323 33.637402 163.840424 33.06937 C 163.449509 32.501343 162.857666 32.219082 162.064896 32.222591 C 161.622116 32.224548 161.165146 32.322083 160.69397 32.51519 C 160.222778 32.708294 159.869064 32.93235 159.632797 33.187359 C 159.508087 33.329243 159.425339 33.498135 159.384506 33.694031 C 159.343704 33.889923 159.323746 34.088902 159.324631 34.290966 C 159.325516 34.490265 159.342636 34.74332 159.376022 35.050137 C 159.409393 35.356949 159.426529 35.610004 159.427399 35.809303 C 159.428436 36.043941 159.143723 36.327175 158.573227 36.659019 C 158.002716 36.990868 157.350098 37.287735 156.615311 37.549641 C 155.880524 37.811546 155.249527 37.943661 154.722305 37.945992 C 154.458954 37.947159 154.237534 37.846001 154.058029 37.642521 C 153.878525 37.439041 153.788086 37.179688 153.786697 36.864449 C 153.784195 36.299118 153.974533 35.739571 154.357712 35.185783 C 154.740906 34.631996 155.367889 33.997917 156.238693 33.283524 C 157.163879 32.508713 158.174606 31.821732 159.270905 31.222553 C 160.367188 30.623383 161.446304 30.14064 162.508286 29.774323 C 163.570282 29.408009 164.483292 29.223164 165.24736 29.219784 C 167.128311 29.211468 168.638718 29.814697 169.778641 31.029507 C 170.918564 32.244312 171.460648 33.856342 171.404938 35.86565 L 171.187363 46.587624 C 171.155579 47.387745 171.297424 48.067421 171.61293 48.626675 C 171.928436 49.185928 172.325516 49.464493 172.804169 49.462376 C 173.484344 49.459366 174.064392 49.233482 174.544403 48.784721 C 174.662567 48.665497 174.774643 48.605652 174.880646 48.605183 C 175.057312 48.604401 175.206223 48.664063 175.327393 48.784157 C 175.448547 48.904251 175.509521 49.052631 175.5103 49.229298 C 175.512146 49.646667 175.189896 50.181683 174.543518 50.834354 C 173.893845 51.489246 173.192276 51.986187 172.438782 52.325191 C 171.685303 52.664192 170.909958 52.835457 170.112762 52.838982 C 168.139618 52.84771 166.497742 51.84935 165.187042 49.84388 L 165.07193 49.844387 C 163.91066 50.919476 162.85907 51.69442 161.917084 52.169243 C 160.975113 52.644066 159.982132 52.883785 158.938156 52.888401 Z M 162.065567 49.417946 C 162.45369 49.416229 162.778839 49.350609 163.041077 49.221088 C 163.303284 49.091568 163.541443 48.889969 163.755554 48.616287 C 163.873596 48.468361 163.964981 48.280247 164.029663 48.051949 C 164.094345 47.823647 164.129013 47.547729 164.133652 47.224182 L 164.266678 43.409214 C 164.271286 43.078487 164.223526 42.861317 164.123428 42.757694 C 164.023315 42.654064 163.89624 42.602592 163.742218 42.603275 C 163.671539 42.603588 163.584229 42.614323 163.480255 42.635487 C 163.376266 42.656651 163.255463 42.706184 163.117767 42.784084 C 162.087585 43.286076 161.327423 43.79887 160.83728 44.322491 C 160.347122 44.846107 160.104523 45.669094 160.109497 46.791473 C 160.113937 47.796814 160.332855 48.486362 160.766251 48.860146 C 161.199631 49.233925 161.632751 49.419857 162.065567 49.417946 Z M 139.044037 52.393379 C 138.832031 52.394314 138.637436 52.333344 138.46022 52.210457 C 138.28302 52.08757 138.193939 51.920132 138.193008 51.70813 C 138.191757 51.425468 138.279068 51.195415 138.454956 51.017967 C 138.630844 50.840523 138.859955 50.715843 139.142303 50.643925 C 140.060028 50.427864 140.703781 50.186516 141.073608 49.919876 C 141.443436 49.653236 141.627106 49.237259 141.624603 48.671928 L 141.573975 37.224037 C 141.568665 36.022713 141.379379 35.166718 141.006104 34.656025 C 140.632843 34.145336 140.057327 33.838715 139.279541 33.736149 C 139.067383 33.701756 138.907913 33.596462 138.801132 33.420265 C 138.694351 33.244068 138.640411 33.032307 138.639328 32.784973 C 138.636978 32.254978 138.829971 31.953789 139.218323 31.881405 C 141.054077 31.519951 142.686035 31.018063 144.114212 30.37574 C 145.542404 29.733414 146.644363 29.233875 147.42012 28.877106 C 147.984192 28.591938 148.336899 28.449047 148.478241 28.448421 C 148.937576 28.446388 149.168167 28.657372 149.170044 29.081364 C 149.13736 29.682186 149.061188 30.433357 148.941513 31.3349 C 148.821823 32.236443 148.719925 33.164394 148.635818 34.118778 C 148.551697 35.073166 148.511597 35.992012 148.515503 36.87534 L 148.567307 48.588223 C 148.569489 49.082886 148.756699 49.470726 149.128952 49.751751 C 149.50119 50.032776 150.164932 50.312508 151.120178 50.590954 C 151.40332 50.695702 151.633514 50.818352 151.810806 50.9589 C 151.988113 51.099457 152.077377 51.311058 152.078613 51.593727 C 152.080658 52.053055 151.816681 52.28389 151.286682 52.286232 C 150.615356 52.2892 149.908615 52.274658 149.166473 52.242611 C 148.424316 52.210556 147.708679 52.178391 147.019516 52.146103 C 146.330353 52.113815 145.667801 52.099079 145.031799 52.101891 C 144.431152 52.104549 143.804062 52.124992 143.150558 52.163216 C 142.49704 52.201439 141.825928 52.248573 141.137161 52.304619 C 140.448395 52.360664 139.750687 52.390251 139.044037 52.393379 Z M 144.757721 26.079849 C 143.662399 26.084694 142.697784 25.682629 141.863861 24.873638 C 141.029938 24.064644 140.610474 23.094833 140.605484 21.964172 C 140.600174 20.762844 141.010864 19.754032 141.837601 18.937695 C 142.664337 18.121357 143.625366 17.710777 144.720688 17.705933 C 145.957352 17.700466 146.98378 18.102257 147.800064 18.911327 C 148.616318 19.720394 149.027084 20.725578 149.032394 21.926907 C 149.037399 23.057568 148.635376 24.03101 147.826309 24.847267 C 147.017227 25.663525 145.994385 26.074379 144.757721 26.079849 Z M 123.97628 52.460014 C 123.654961 52.461433 123.397697 52.39991 123.204468 52.27544 C 123.011238 52.15097 122.914085 51.968109 122.913025 51.726849 C 122.911774 51.444183 123.021637 51.226036 123.24263 51.072407 C 123.463608 50.918777 123.758469 50.773796 124.12722 50.637451 C 124.656441 50.458443 125.124451 50.2677 125.531273 50.065212 C 125.938095 49.862728 126.139816 49.379181 126.136436 48.614548 L 126.02388 23.163204 C 126.0196 22.196507 125.888374 21.361923 125.630203 20.659428 C 125.372032 19.956928 124.800903 19.519302 123.916794 19.346546 C 123.547134 19.277512 123.361259 19.005329 123.359161 18.529987 C 123.357208 18.089428 123.523079 17.83308 123.856781 17.760937 C 124.745918 17.574261 125.720955 17.305779 126.781906 16.955475 C 127.842857 16.605175 128.852264 16.246273 129.810181 15.878761 C 130.768097 15.511253 131.514938 15.234665 132.050751 15.048996 C 132.336288 14.948364 132.557724 14.89769 132.715073 14.896996 C 132.930939 14.896042 133.07283 14.96125 133.140762 15.092628 C 133.208694 15.223999 133.243011 15.368629 133.243713 15.526527 C 133.244873 15.78656 133.206894 16.249508 133.129791 16.915398 C 133.052689 17.581284 133.001358 18.333309 132.975784 19.171497 L 133.105484 48.496773 C 133.108856 49.261406 133.31485 49.743153 133.72345 49.942032 C 134.13205 50.140907 134.60173 50.327507 135.132507 50.501827 C 135.503006 50.634899 135.799255 50.777267 136.021317 50.92894 C 136.243393 51.080612 136.355042 51.297775 136.356293 51.580441 C 136.357346 51.821701 136.261978 52.005417 136.070114 52.131588 C 135.878281 52.257759 135.621429 52.321556 135.299561 52.322983 C 134.599518 52.32608 133.923141 52.309883 133.270432 52.274399 C 132.617691 52.238914 131.982681 52.212051 131.365356 52.193802 C 130.748032 52.175552 130.121399 52.167831 129.485397 52.170647 C 128.884735 52.173302 128.295883 52.193573 127.718842 52.231461 C 127.1418 52.269348 126.550446 52.316124 125.944771 52.371807 C 125.339104 52.427486 124.682938 52.456886 123.97628 52.460014 Z M 111.287979 53.10907 C 109.373909 53.117535 107.661354 52.619125 106.150253 51.613823 C 104.639145 50.608521 103.444427 49.233322 102.566071 47.488178 C 101.687698 45.743038 101.243637 43.765507 101.233864 41.555527 C 101.22403 39.332298 101.733894 37.306797 102.763466 35.478962 C 103.793037 33.651127 105.184189 32.192028 106.936943 31.101627 C 108.689705 30.011223 110.629646 29.461327 112.756805 29.45192 C 114.256813 29.445286 115.613861 29.765427 116.828018 30.412354 C 118.04216 31.05928 119.011459 31.928116 119.735939 33.018883 C 120.460419 34.109642 120.825729 35.352287 120.831902 36.746841 C 120.837769 38.073494 120.296356 38.739216 119.207649 38.74403 L 108.589539 38.790985 C 108.094872 38.793175 107.736504 38.934574 107.514427 39.215191 C 107.292343 39.495808 107.182831 39.981434 107.18589 40.672089 C 107.191849 42.020271 107.495811 43.24593 108.097771 44.349106 C 108.699738 45.452286 109.51902 46.322609 110.555626 46.960106 C 111.592239 47.597603 112.780197 47.913387 114.119545 47.907463 C 115.150833 47.902905 116.098427 47.702724 116.962357 47.306919 C 117.826286 46.911114 118.679054 46.366299 119.520683 45.672462 C 119.632912 45.581974 119.753159 45.495457 119.881432 45.412903 C 120.009705 45.330353 120.126839 45.288841 120.232834 45.288372 C 120.60218 45.286739 120.787819 45.506199 120.789764 45.946762 C 120.791458 46.328247 120.649689 46.85363 120.364456 47.522923 C 120.012352 48.427147 119.423737 49.309494 118.598579 50.169991 C 117.773407 51.030487 116.739296 51.733719 115.496193 52.279716 C 114.25309 52.82571 112.850365 53.102158 111.287979 53.10907 Z M 108.598816 36.583141 L 111.770508 36.569118 C 112.763145 36.564728 113.451096 36.544018 113.834358 36.506989 C 114.217621 36.469959 114.575737 36.397709 114.90873 36.290234 C 115.085106 36.225414 115.220955 36.044834 115.316254 35.748489 C 115.41156 35.452148 115.458427 35.127316 115.456863 34.773987 C 115.452721 33.836552 115.129105 33.065063 114.486 32.459503 C 113.842896 31.853943 113.033592 31.553326 112.058067 31.55764 C 111.332085 31.560848 110.643333 31.773411 109.991798 32.195332 C 109.340256 32.617249 108.808907 33.153465 108.397713 33.803989 C 107.986526 34.454514 107.797127 35.133038 107.829506 35.839569 C 107.831711 36.337547 108.088142 36.585403 108.598816 36.583141 Z M 80.289734 52.653214 C 80.023079 52.654392 79.779457 52.589634 79.558876 52.458935 C 79.338287 52.328236 79.227463 52.142262 79.226402 51.901001 C 79.225151 51.618336 79.337341 51.396179 79.562988 51.234524 C 79.788628 51.072868 80.081192 50.938244 80.440681 50.830654 C 81.226906 50.592537 81.750938 50.334053 82.012772 50.055191 C 82.274612 49.776333 82.404305 49.360592 82.401863 48.807961 L 82.348007 36.630501 C 82.344688 35.87912 82.244118 35.266476 82.046303 34.792553 C 81.848488 34.318626 81.423477 33.994778 80.771233 33.820992 C 80.600365 33.757706 80.439972 33.662903 80.290077 33.536591 C 80.140182 33.410271 80.064537 33.189495 80.063141 32.874256 C 80.060936 32.376278 80.276581 32.07637 80.710068 31.974529 C 81.830101 31.686901 83.066475 31.309746 84.419243 30.843044 C 85.772011 30.376339 86.932899 29.906212 87.901932 29.432652 C 88.084175 29.319771 88.301994 29.19997 88.555389 29.07325 C 88.808792 28.946526 88.999817 28.882881 89.128448 28.882313 C 89.45031 28.88089 89.612114 29.076439 89.613846 29.468971 C 89.614571 29.632938 89.607292 29.984924 89.59201 30.524937 C 89.576736 31.064949 89.55423 31.624863 89.524498 32.204689 C 89.494766 32.784519 89.477722 33.270149 89.473381 33.661602 C 89.474724 33.964142 89.539703 34.115124 89.668343 34.114555 C 90.201157 33.376812 90.824989 32.654415 91.539864 31.947338 C 92.25473 31.240257 93.031258 30.653408 93.869484 30.186771 C 94.707703 29.720139 95.549416 29.484955 96.394653 29.481216 C 97.600395 29.475883 98.464447 29.703526 98.986832 30.164143 C 99.509216 30.62476 99.772003 31.21833 99.775215 31.94487 C 99.77755 32.471554 99.632309 33.056301 99.339516 33.699127 C 99.046715 34.341949 98.669876 34.895699 98.209007 35.360394 C 97.748131 35.825081 97.254089 36.05859 96.726845 36.060921 C 96.398911 36.06237 96.06028 35.98354 95.710922 35.824429 C 95.361572 35.665318 95.001579 35.50156 94.630936 35.333153 C 94.289574 35.170692 93.948257 35.015408 93.606956 34.867302 C 93.265663 34.719193 92.95369 34.645763 92.671028 34.647015 C 91.76506 34.65102 90.981361 34.991123 90.319908 35.66732 C 89.658455 36.343525 89.332161 37.680595 89.340996 39.678574 L 89.379112 48.298443 C 89.382301 49.018906 89.602997 49.550003 90.041214 49.891739 C 90.479424 50.233482 91.184151 50.543533 92.155411 50.821907 C 92.544548 50.926189 92.838257 51.052696 93.036568 51.201439 C 93.234871 51.350178 93.334641 51.562561 93.335861 51.838604 C 93.338089 52.343204 93.043846 52.596809 92.45311 52.599422 C 91.39312 52.604111 90.292099 52.564812 89.150002 52.481529 C 88.007904 52.398243 86.977547 52.358635 86.058884 52.362694 C 85.458221 52.365353 84.849365 52.385712 84.232292 52.423775 C 83.615219 52.461838 82.980537 52.508812 82.328209 52.564697 C 81.67588 52.620583 80.996399 52.650085 80.289734 52.653214 Z M 66.983055 53.136063 C 66.984558 53.4767 67.137688 53.646339 67.442429 53.644989 C 67.648361 53.644081 67.871643 53.606102 68.112305 53.531059 C 68.352956 53.456014 68.584043 53.371351 68.805565 53.277069 C 69.783852 52.89732 70.955063 52.484291 72.319237 52.037964 C 73.683418 51.591637 75.213432 51.290749 76.909317 51.135288 C 77.265808 51.098377 77.507111 50.984825 77.633255 50.794624 C 77.759392 50.60442 77.821709 50.339005 77.820206 49.998375 C 77.818924 49.709084 77.729576 49.478848 77.552147 49.307655 C 77.374725 49.136463 77.125076 49.051579 76.803223 49.053001 C 76.671822 49.053581 76.433731 49.052155 76.088928 49.048706 C 75.744141 49.045265 75.48838 49.043911 75.321648 49.044647 C 75.074318 49.045742 74.852882 48.908699 74.657326 48.633522 C 74.461769 48.358337 74.362213 47.816357 74.358635 47.007557 L 74.304298 34.720791 C 74.302917 34.409416 74.327553 33.988617 74.378212 33.458385 C 74.428871 32.928154 74.479637 32.422775 74.530502 31.94223 C 74.581383 31.461685 74.624191 31.153988 74.658928 31.019119 C 74.722794 30.85487 74.770454 30.706699 74.801888 30.574608 C 74.833328 30.442524 74.84877 30.315472 74.848228 30.193466 C 74.846382 29.775539 74.586815 29.567722 74.069511 29.570011 C 73.970139 29.57045 73.853027 29.587116 73.718193 29.62001 C 73.583351 29.652905 73.466049 29.687241 73.36628 29.723015 C 72.702225 29.87336 72.02816 30.0047 71.344063 30.117039 C 70.659966 30.229378 69.789352 30.328876 68.732208 30.415539 C 67.675056 30.502197 66.251579 30.610489 64.461716 30.740417 C 64.121086 30.741924 63.821815 30.82523 63.563885 30.990345 C 63.305962 31.155457 63.177834 31.425991 63.179497 31.801956 C 63.181316 32.213257 63.295769 32.502041 63.522861 32.668324 C 63.749954 32.834602 64.066177 32.931198 64.471527 32.958118 C 65.027603 32.984917 65.523689 33.118671 65.959801 33.359386 C 66.39592 33.600105 66.734268 33.927097 66.974876 34.340378 C 67.215485 34.753658 67.337173 35.273319 67.339943 35.89938 L 67.377647 44.425671 C 67.381721 45.347095 67.265724 46.082844 67.029655 46.632942 C 66.793579 47.183044 66.568604 47.556278 66.354713 47.752666 C 65.859344 48.220821 65.339966 48.530769 64.796547 48.68251 C 64.253136 48.834255 63.695732 48.911392 63.124329 48.913918 C 62.527401 48.887848 61.977783 48.696911 61.475468 48.341103 C 60.973145 47.985291 60.581043 47.489323 60.299149 46.85318 C 60.017254 46.217037 59.874432 45.474979 59.870682 44.626984 L 59.825745 34.465988 C 59.822151 33.653324 59.852818 32.973022 59.917751 32.42506 C 59.982681 31.877102 60.080978 31.196499 60.212646 30.383236 C 60.245792 29.888416 60.024422 29.642063 59.548527 29.644165 C 59.361923 29.644993 59.169899 29.667511 58.972446 29.711723 C 58.774994 29.755936 58.594429 29.810699 58.430744 29.876019 C 57.181629 30.186852 55.955547 30.457409 54.752457 30.687706 C 53.549362 30.918003 52.202408 31.071781 50.711548 31.149044 C 50.471001 31.185439 50.278767 31.285941 50.134846 31.45055 C 49.990925 31.615154 49.919544 31.827473 49.920692 32.087502 C 49.922073 32.399426 50.008247 32.629681 50.179226 32.778263 C 50.350201 32.926849 50.538746 33.021664 50.744858 33.06271 C 51.558285 33.231922 52.113781 33.567337 52.411369 34.068977 C 52.708958 34.570614 52.859528 35.224445 52.863094 36.030483 L 52.907024 45.963745 C 52.913242 47.370445 53.176521 48.635071 53.696865 49.757652 C 54.217209 50.880241 54.923645 51.764866 55.8162 52.41156 C 56.708755 53.05825 57.705997 53.379158 58.807949 53.374283 C 60.43935 53.367069 62.001877 52.960037 63.495579 52.153175 C 64.989281 51.346313 66.205353 50.371063 67.143814 49.227394 C 67.172684 49.2626 67.194641 49.328339 67.209694 49.424614 C 67.224754 49.520885 67.232628 49.647968 67.23333 49.805862 C 67.23497 50.177963 67.193214 50.723194 67.108063 51.441566 C 67.022903 52.159935 66.981232 52.724762 66.983055 53.136063 Z M 12.249963 52.874611 C 12.518545 52.997093 12.853513 53.057446 13.254875 53.055672 C 14.340818 53.050869 15.366057 52.993332 16.330626 52.883064 C 17.295195 52.7728 18.302492 52.715347 19.352551 52.710701 C 20.399847 52.70607 21.365255 52.726646 22.248804 52.772423 C 23.132353 52.818207 24.09362 52.838799 25.132637 52.834206 C 25.534 52.832428 25.832275 52.772591 26.02747 52.654678 C 26.222664 52.536774 26.319727 52.357193 26.318661 52.115936 C 26.316172 51.553364 25.890766 51.172928 25.042429 50.974617 C 23.526495 50.624668 22.53944 50.172737 22.08124 49.618805 C 21.623037 49.064877 21.52187 48.253761 21.777733 47.185436 C 21.891607 46.718967 22.021318 46.243881 22.166864 45.760155 C 22.312408 45.276432 22.464262 44.783993 22.622429 44.282822 C 22.780594 43.781651 22.946075 43.281284 23.118881 42.781704 C 23.291683 42.282127 23.444336 41.783058 23.576841 41.284485 C 23.659422 40.982128 23.765381 40.754337 23.894722 40.601112 C 24.024061 40.447887 24.217087 40.370708 24.473804 40.369572 L 33.838978 40.328156 C 34.159737 40.326736 34.381428 40.395733 34.504055 40.535145 C 34.626686 40.674557 34.723957 40.885441 34.795872 41.167793 C 34.994999 41.87635 35.197296 42.616074 35.402771 43.38699 C 35.608246 44.157902 35.812939 44.908798 36.016857 45.639694 C 36.220776 46.37059 36.396545 47.073029 36.544174 47.747032 C 36.780212 48.687855 36.593937 49.386097 35.98534 49.841782 C 35.37674 50.297462 34.417717 50.660145 33.108246 50.929832 C 32.765163 51.002022 32.468037 51.134178 32.216858 51.326313 C 31.965677 51.518448 31.840765 51.767159 31.842115 52.072464 C 31.84318 52.313169 31.963673 52.500483 32.203594 52.634407 C 32.44352 52.768333 32.720543 52.834599 33.034679 52.83321 C 33.74852 52.830055 34.593914 52.80299 35.570892 52.752018 C 36.547867 52.701042 37.520039 52.659065 38.487431 52.62608 C 39.45483 52.59309 40.288807 52.57505 40.989399 52.571953 C 41.802059 52.568359 42.736115 52.583412 43.791588 52.617111 C 44.847057 52.650818 45.89299 52.6847 46.929417 52.718761 C 47.965847 52.752823 48.832962 52.768311 49.530788 52.765228 C 49.844921 52.763836 50.106873 52.69836 50.316647 52.568794 C 50.526421 52.439232 50.630772 52.253822 50.629704 52.012562 C 50.628227 51.678551 50.507481 51.433411 50.26746 51.277126 C 50.027435 51.120842 49.722797 50.990517 49.353539 50.886147 C 48.645996 50.689972 48.004219 50.444649 47.428188 50.150169 C 46.852158 49.855694 46.345551 49.464714 45.908344 48.977219 C 45.471142 48.489723 45.133915 47.887371 44.896656 47.170151 C 44.172836 44.916401 43.414543 42.605698 42.621758 40.237972 C 41.828972 37.870243 41.03064 35.462135 40.22673 33.01358 C 39.422821 30.565018 38.621296 28.120625 37.822113 25.680328 C 37.022934 23.240028 36.252029 20.823795 35.509377 18.431553 C 35.437519 18.1619 35.360096 17.914082 35.277111 17.688087 C 35.194126 17.462101 35.087811 17.235111 34.958168 17.007118 C 34.835075 16.763088 34.703621 16.655876 34.563797 16.685478 C 34.423969 16.71508 34.278633 16.776867 34.127777 16.870838 C 33.906849 17.10038 33.575985 17.406319 33.135178 17.788658 C 32.694366 18.170998 32.170856 18.484138 31.564634 18.728081 C 30.899891 18.971733 30.292921 19.169575 29.743711 19.321625 C 29.1945 19.473671 28.601992 19.633083 27.966167 19.799862 C 27.873442 19.930569 27.757862 20.323334 27.619423 20.978172 C 27.480984 21.633018 27.152674 22.672386 26.634483 24.09631 C 25.905338 26.131786 25.176439 28.126785 24.447767 30.081379 C 23.719093 32.035965 22.987955 33.961552 22.25433 35.858192 C 21.520708 37.754837 20.764797 39.665215 19.986576 41.589382 C 19.208357 43.51355 18.386986 45.477905 17.522442 47.48251 C 17.134878 48.357079 16.560928 49.093197 15.800583 49.690887 C 15.040236 50.288574 14.1434 50.731033 13.110052 51.018272 C 12.748411 51.138573 12.446779 51.281933 12.205148 51.448353 C 11.963515 51.614773 11.843439 51.864983 11.844916 52.19899 C 11.846367 52.526924 11.981381 52.752132 12.249963 52.874611 Z M 32.847603 37.497013 L 25.93614 37.527576 C 25.698746 37.528629 25.482712 37.490246 25.288033 37.412434 C 25.093351 37.334621 24.995623 37.207386 24.994841 37.03072 C 24.994272 36.902084 25.028978 36.760601 25.098963 36.606258 L 29.260437 24.645344 C 29.41271 24.247166 29.524178 24.04792 29.594845 24.047607 C 29.700842 24.047138 29.817396 24.248688 29.944506 24.652256 L 33.522572 36.569004 C 33.558498 36.703556 33.585426 36.800465 33.603355 36.859734 C 33.621284 36.919003 33.630535 37.012955 33.631104 37.14159 C 33.632141 37.376225 33.370975 37.494698 32.847603 37.497013 Z"/>
</svg>
